<?xml version="1.0" encoding="UTF-8"?>
<svg version="1.1" xmlns="http://www.w3.org/2000/svg" width="1911" height="619">
<path d="M0 0 C6.04398629 5.53267292 9.36439501 12.09336712 10.41796875 20.2265625 C11.41605271 44.12662709 -4.96161723 68.08369264 -20.3125 85.125 C-21.68994652 86.56775648 -23.06798876 88.01010826 -24.46484375 89.43408203 C-26.1675082 91.17086476 -27.84825191 92.92775623 -29.53125 94.68359375 C-37.49548503 102.90577971 -45.7697476 110.23957547 -55 117 C-55.64662598 117.48033691 -56.29325195 117.96067383 -56.95947266 118.45556641 C-67.83387239 126.50340736 -79.13735218 133.50787993 -91 140 C-91.87366211 140.47937012 -92.74732422 140.95874023 -93.64746094 141.45263672 C-166.86145458 181.31943074 -166.86145458 181.31943074 -202 178 C-203 177 -203 177 -203.5 173.4375 C-203.33037938 165.6470672 -199.38017495 158.84058377 -196 152 C-195.52755859 151.03739258 -195.05511719 150.07478516 -194.56835938 149.08300781 C-186.19477724 132.16205221 -176.84142662 116.01245421 -166.86816406 100.00048828 C-165.2629234 97.4222855 -163.67050961 94.83702206 -162.0859375 92.24609375 C-156.84540533 83.71004202 -151.28566193 75.42362178 -145.54638672 67.21582031 C-143.84771181 64.78178597 -142.16005328 62.34030229 -140.47265625 59.8984375 C-118.03562261 27.50705088 -118.03562261 27.50705088 -109.125 25.875 C-106 26 -106 26 -103 28 C-101.23996881 39.88021051 -109.66779053 51.28238553 -115.4375 61.0625 C-137.52470708 94.71159181 -137.52470708 94.71159181 -147 132 C-125.43095825 131.52453014 -104.83424949 117.46229068 -88 105 C-87.40380859 104.56075195 -86.80761719 104.12150391 -86.19335938 103.66894531 C-65.45729839 88.24835752 -38.65628512 66.0790298 -34.1484375 39.08203125 C-33.66390592 32.28583828 -34.63317431 26.38079451 -39 21 C-54.90494901 6.15538093 -86.02572354 6.91948184 -106.203125 6.7890625 C-108.67188196 6.761023 -111.14063189 6.7323588 -113.609375 6.703125 C-117.44270848 6.66177934 -121.27590614 6.62482301 -125.109375 6.59863281 C-128.84922124 6.57096558 -132.58849954 6.52513763 -136.328125 6.4765625 C-137.46582336 6.47330963 -138.60352173 6.47005676 -139.7756958 6.46670532 C-146.11199118 6.36937769 -152.31302896 6.08565188 -158 3 C-160 0 -160 0 -159.8125 -2.03515625 C-158.22806734 -5.866741 -154.56617557 -7.33814198 -151 -9 C-109.67300938 -24.90643164 -36.37234001 -30.98131776 0 0 Z " fill="#000000" transform="translate(263,319)"/>
<path d="M0 0 C1.16789062 0.2180127 1.16789062 0.2180127 2.359375 0.44042969 C9.21057942 1.85431262 17.75502522 4.06155793 21.9375 10.0625 C22.4375 12.625 22.4375 12.625 21.9375 15.0625 C14.52240571 22.18169452 -1.28763813 20.37747497 -11.0776062 20.52581787 C-45.61587557 19.24881505 -45.61587557 19.24881505 -77.0625 30.0625 C-79.68238272 34.3487707 -79.74441342 38.17178763 -79.0625 43.0625 C-75.42560701 56.11469973 -66.32358962 66.91434345 -57.26171875 76.65625 C-55.01190449 79.1178585 -52.90719172 81.65548203 -50.8125 84.25 C-47.20159665 88.71644839 -43.47098751 93.0556751 -39.6875 97.375 C-34.04352384 103.8455033 -28.63038443 110.4546963 -23.42285156 117.28125 C-22.49726003 118.49322341 -21.56672002 119.7014301 -20.63183594 120.90625 C-8.91153866 136.03938435 -0.57272953 150.36657357 -2.0625 170.0625 C-3.89884315 179.2565402 -10.10821043 186.18559875 -17.34375 191.84765625 C-55.62287161 216.79288383 -120.63863894 206.09827078 -162.3671875 198.08984375 C-172.1823406 195.96850421 -172.1823406 195.96850421 -175.45703125 192.59765625 C-177.0625 190.0625 -177.0625 190.0625 -177.125 187.4375 C-175.67415652 184.19443811 -174.30541565 183.47246333 -171.0625 182.0625 C-164.11976353 180.73543462 -157.05040241 180.67028876 -150.00390625 180.37890625 C-148.61407092 180.31830129 -147.2242549 180.25725199 -145.8344574 180.19578552 C-139.97641402 179.93760695 -134.11800425 179.68816713 -128.25952148 179.44018555 C-113.98997824 178.83401964 -99.72875855 178.22735795 -85.4921875 177.05078125 C-84.54739029 176.97299942 -83.60259308 176.89521759 -82.62916565 176.81507874 C-64.24024223 175.62649812 -64.24024223 175.62649812 -49 166.75 C-46.81708982 160.49232414 -48.20727585 155.56837685 -50.7578125 149.7109375 C-57.89257812 135.22779051 -69.35264746 123.13920028 -79.82299805 110.99853516 C-84.33514283 105.76513483 -88.71664095 100.43476797 -93.0625 95.0625 C-93.99558611 93.93447573 -94.92920942 92.80689567 -95.86328125 91.6796875 C-106.61288048 78.60999286 -116.85673842 64.92424135 -123.0625 49.0625 C-123.743125 47.33 -123.743125 47.33 -124.4375 45.5625 C-126.04904908 36.53782515 -126.21935866 27.90317338 -121.0625 20.0625 C-110.29208981 4.9602545 -93.63760225 -0.72152761 -76 -3.6875 C-50.79154554 -7.41965447 -24.88825045 -4.73479197 0 0 Z " fill="#000000" transform="translate(417.0625,251.9375)"/>
<path d="M0 0 C11.10158311 -0.04656412 22.20314257 -0.08199063 33.30480385 -0.10362434 C38.46105043 -0.11401312 43.61722966 -0.12808155 48.7734375 -0.15087891 C53.75959297 -0.1727837 58.74568409 -0.18460541 63.731884 -0.18975449 C65.62384426 -0.19341885 67.51580143 -0.20057333 69.40773392 -0.21146011 C89.61983433 -0.32302601 109.23789678 0.58823273 125 15 C136.49594923 27.75392347 139.59062786 43.20627631 138.9375 60 C137.3709478 87.10576582 127.64324242 114.88767904 107.25390625 133.5078125 C91.88777572 145.80905675 72.71729964 151.14648193 53.20703125 151.11352539 C52.10800224 151.11374443 52.10800224 151.11374443 50.98677063 151.1139679 C48.59531563 151.11327823 46.20394118 151.10553076 43.8125 151.09765625 C42.1424158 151.0957887 40.47233104 151.09436639 38.80224609 151.09336853 C34.42932596 151.08956988 30.0564396 151.07976254 25.68353271 151.06866455 C21.21220354 151.05839311 16.74086885 151.05385868 12.26953125 151.04882812 C3.51300542 151.03813764 -5.24349308 151.02109345 -14 151 C-10.31444034 128.6195274 -6.52407247 106.26096724 -2.53027344 83.93334961 C-1.86408221 80.20732656 -1.20498962 76.48007974 -0.54720688 72.75256443 C-0.02921273 69.82398723 0.49356141 66.89627834 1.01769257 63.96879387 C1.26343765 62.59165536 1.5074429 61.21420509 1.74958038 59.83642769 C2.08351983 57.93896246 2.4248966 56.04281068 2.76660156 54.14672852 C2.95724182 53.07616714 3.14788208 52.00560577 3.34429932 50.90260315 C3.98244584 48.07770736 4.74071344 45.60735679 6 43 C9.79292798 40.77004808 13.2836197 40.76514721 17.61328125 40.8046875 C18.86044922 40.81113281 20.10761719 40.81757813 21.39257812 40.82421875 C23.33293945 40.84935547 23.33293945 40.84935547 25.3125 40.875 C26.62541016 40.88402344 27.93832031 40.89304687 29.29101562 40.90234375 C32.52753855 40.9258821 35.76364448 40.96048829 39 41 C38.437815 50.8573885 36.82277326 60.44649148 35.05859375 70.140625 C34.7680746 71.76006522 34.47804929 73.3795941 34.18849182 74.99920654 C33.43224033 79.22169851 32.66937293 83.44296788 31.9050293 87.66400146 C31.12337119 91.98750962 30.34810326 96.31216306 29.57226562 100.63671875 C28.05436026 109.09226713 26.52945003 117.54653224 25 126 C29.60475345 125.95525995 34.20821084 125.88483749 38.81225586 125.79248047 C40.37237119 125.76457831 41.93261981 125.74321399 43.49291992 125.72900391 C57.38804653 125.5950104 70.7278266 124.4482678 81 114 C95.85182866 97.33697272 101.17246158 74.34104766 100.38671875 52.4921875 C99.83468468 44.14376063 97.24934222 36.69384513 91 31 C83.33538515 25.96128334 74.8670682 26.42982248 66.0546875 26.4609375 C64.51488866 26.45101322 62.97510166 26.43906544 61.43533325 26.42520142 C57.40373642 26.39300475 53.37241096 26.38246214 49.34069824 26.37835693 C42.88247573 26.36956436 36.42447419 26.333901 29.96643448 26.2861824 C27.72248119 26.27367601 25.47881355 26.27434788 23.23483276 26.27645874 C21.84909857 26.26987391 20.46336629 26.26286676 19.07763672 26.25537109 C17.27635818 26.25348282 17.27635818 26.25348282 15.43869019 26.2515564 C11.10265672 25.93435511 6.7210035 25.38529205 3.2578125 22.59765625 C0.08675868 18.30033159 -1.14109812 15.42128183 -1.125 10.125 C-1.12757813 9.28195312 -1.13015625 8.43890625 -1.1328125 7.5703125 C-0.99781019 4.95762068 -0.53728053 2.55621748 0 0 Z " fill="#000000" transform="translate(1003,302)"/>
<path d="M0 0 C11.2437194 10.1486789 17.25112738 25.18225566 18.1262207 40.16040039 C19.03181635 67.25064737 12.85474399 93.92818503 -5 115 C-5.79664063 116.01320313 -5.79664063 116.01320313 -6.609375 117.046875 C-18.64881581 131.83818799 -37.5391138 139.88611558 -56 143 C-77.94867626 145.07716179 -101.0183369 143.98593298 -118.8125 129.3125 C-130.37631397 118.31430737 -135.67473258 103.27521057 -136.3359375 87.59765625 C-136.82649505 57.49844682 -128.64911789 30.52107524 -107.625 8.3125 C-80.80622306 -17.47711394 -30.00993802 -23.54186897 0 0 Z M-86.34765625 26.91796875 C-98.61926505 42.38077606 -105.17509882 67.27714447 -103 87 C-101.28587832 97.62010172 -98.45129522 104.47565077 -90.14453125 111.45703125 C-81.1831311 117.90466888 -69.03518835 117.99606346 -58.49609375 116.50390625 C-51.21511278 115.11368658 -45.09495457 113.2628039 -39 109 C-38.38769531 108.58105469 -37.77539062 108.16210938 -37.14453125 107.73046875 C-24.06525361 97.71168434 -18.73936767 79.38809118 -16.32958984 63.76416016 C-15.72107684 58.66076441 -15.55599905 53.57352627 -15.5 48.4375 C-15.47232544 46.95781738 -15.47232544 46.95781738 -15.4440918 45.44824219 C-15.5276207 35.6596468 -18.38783244 27.81106181 -25.15234375 20.6875 C-33.60484179 12.96767093 -44.0573522 12.46965006 -54.99609375 12.75390625 C-67.13760731 13.33399758 -78.02524928 17.92976923 -86.34765625 26.91796875 Z " fill="#000000" transform="translate(769,316)"/>
<path d="M0 0 C1.17152367 -0.00021904 1.17152367 -0.00021904 2.36671448 -0.0004425 C4.93680644 0.00025169 7.50682506 0.00802093 10.0769043 0.01586914 C11.86337749 0.01773507 13.64985119 0.01915815 15.43632507 0.02015686 C20.12986676 0.02396823 24.82337732 0.03378672 29.51690674 0.04486084 C34.3096881 0.05510464 39.10247451 0.05966084 43.89526367 0.06469727 C53.29306378 0.07541025 62.69084082 0.09247008 72.08862305 0.11352539 C72.13261844 3.16706922 72.16479262 6.21997344 72.19018555 9.27368164 C72.20380127 10.13433228 72.21741699 10.99498291 72.23144531 11.88171387 C72.26824795 17.78287513 72.12863162 23.43618926 68.08862305 28.11352539 C63.7510562 31.47272639 60.96166394 32.61261961 55.48828125 32.61181641 C54.19706863 32.62185196 52.90585602 32.63188751 51.57551575 32.64222717 C50.55219619 32.63614787 50.55219619 32.63614787 49.50820351 32.62994576 C47.35994363 32.61725764 45.21295751 32.62865396 43.06474304 32.64598083 C39.28307498 32.67260786 35.50172237 32.6782789 31.7199707 32.67687988 C25.65695162 32.67464567 19.59432049 32.68872401 13.53145409 32.73246574 C11.41572515 32.74230918 9.30060713 32.73358805 7.18489075 32.72377014 C5.90313461 32.73065353 4.62137848 32.73753693 3.30078125 32.74462891 C2.1708223 32.74366714 1.04086334 32.74270538 -0.12333679 32.74171448 C-2.92298345 32.88714335 -2.92298345 32.88714335 -4.80587769 34.51071167 C-6.11825529 36.06605344 -6.11825529 36.06605344 -5.81152344 38.12744141 C-4.72144258 40.53259675 -3.66986512 41.38874377 -1.5090332 42.89086914 C-0.79295898 43.3974707 -0.07688477 43.90407227 0.66088867 44.42602539 C1.44141602 44.96227539 2.22194336 45.49852539 3.02612305 46.05102539 C4.681273 47.21610301 6.33621527 48.38147571 7.9909668 49.54711914 C8.84029785 50.13992676 9.68962891 50.73273438 10.56469727 51.34350586 C14.43620949 54.05858263 18.26159914 56.83626953 22.08862305 59.61352539 C26.70212353 62.95603184 31.32379328 66.28504145 35.9753418 69.57446289 C36.77907227 70.14616211 37.58280273 70.71786133 38.41088867 71.30688477 C39.93308343 72.38913884 41.45886036 73.46638125 42.98901367 74.53735352 C49.42099406 79.12482519 55.58950819 83.98268661 58.96362305 91.30102539 C59.35291992 92.11958008 59.7422168 92.93813477 60.14331055 93.78149414 C64.15961863 103.68949384 62.96773335 116.19773449 59.4753418 126.07446289 C53.93843073 138.20887644 45.67524901 144.58445349 33.5456543 149.35180664 C28.28108365 150.98390724 23.19312541 151.23654356 17.70629883 151.22705078 C16.63696861 151.22726982 16.63696861 151.22726982 15.54603577 151.22749329 C13.2086372 151.22680111 10.87132006 151.21904151 8.53393555 151.21118164 C6.90583337 151.20931499 5.27773063 151.20789225 3.64962769 151.20689392 C-0.62139454 151.20308821 -4.8923824 151.19327465 -9.16339111 151.18218994 C-13.52729833 151.17193387 -17.89121114 151.16738733 -22.25512695 151.16235352 C-30.807226 151.15165054 -39.35929719 151.13459763 -47.91137695 151.11352539 C-47.99866742 147.05116137 -48.05186687 142.9890395 -48.09887695 138.92602539 C-48.13658203 137.20029297 -48.13658203 137.20029297 -48.17504883 135.43969727 C-48.1847168 134.32788086 -48.19438477 133.21606445 -48.2043457 132.07055664 C-48.22005615 131.04937744 -48.2357666 130.02819824 -48.25195312 128.97607422 C-47.85655558 125.6527508 -46.87927892 123.79610381 -44.91137695 121.11352539 C-42.20008067 119.75787725 -40.04773623 119.9663429 -37.01220703 119.93994141 C-35.15436333 119.91970665 -35.15436333 119.91970665 -33.25898743 119.89906311 C-32.59487665 119.89400316 -31.93076588 119.88894321 -31.24653053 119.88372993 C-29.16505243 119.86730653 -27.08375395 119.8440647 -25.00236511 119.8188324 C-19.08369944 119.74811946 -13.16495767 119.68814776 -7.24609375 119.63671875 C-3.62564242 119.60478122 -0.00539342 119.56346167 3.61489296 119.51652336 C4.99065797 119.50058234 6.3664696 119.48822463 7.74230003 119.47961617 C17.64080633 119.59779979 17.64080633 119.59779979 27.08862305 117.11352539 C29.269004 113.84295396 29.7210906 112.9083307 29.08862305 109.11352539 C25.34592904 104.87085317 21.02901485 101.7912342 16.40112305 98.61352539 C14.87963682 97.554567 13.35882586 96.49463788 11.83862305 95.43383789 C10.66493164 94.61641113 10.66493164 94.61641113 9.4675293 93.7824707 C5.58335839 91.05749201 1.74212088 88.27387792 -2.09887695 85.48852539 C-6.37053866 82.39225026 -10.64217234 79.29707355 -14.9465332 76.24633789 C-15.57599854 75.79983887 -16.20546387 75.35333984 -16.85400391 74.89331055 C-18.5331756 73.70430365 -20.21438081 72.51817001 -21.89575195 71.33227539 C-26.75592681 67.75639545 -31.07245074 64.55079959 -34.16137695 59.23852539 C-34.6409082 58.43672852 -35.12043945 57.63493164 -35.61450195 56.80883789 C-40.23205006 47.21212647 -40.67248572 35.21541655 -37.28637695 25.11352539 C-33.24373932 15.69009482 -25.68009113 6.4480409 -16.16137695 2.17602539 C-10.69852595 0.39009333 -5.72614475 -0.02819827 0 0 Z " fill="#000000" transform="translate(551.911376953125,301.886474609375)"/>
<path d="M0 0 C0.87443756 -0.00570007 1.74887512 -0.01140015 2.64981079 -0.01727295 C4.49357926 -0.02666205 6.33736405 -0.03323248 8.18115234 -0.03710938 C10.93488789 -0.04672941 13.68784785 -0.07777598 16.44140625 -0.109375 C39.52333334 -0.24774437 60.69779615 3.30958668 80.4140625 16.015625 C87.36242271 22.96398521 90.52710796 30.24830509 90.9140625 39.953125 C90.08978217 68.49925416 66.84051785 90.82149374 47.62402344 109.32128906 C43.11772418 113.514258 38.29206613 117.25902274 33.34472656 120.91308594 C31.57132218 122.22550453 29.81643169 123.56013855 28.0625 124.8984375 C-24.97799399 165.01357822 -24.97799399 165.01357822 -48.3984375 162.203125 C-49.3984375 161.203125 -49.3984375 161.203125 -49.8984375 158.640625 C-49.13393977 153.38470314 -46.10227031 150.84197828 -42.3984375 147.203125 C-41.62242187 146.44 -40.84640625 145.676875 -40.046875 144.890625 C-34.23587687 139.4131887 -28.0778953 134.61624842 -21.66333008 129.87817383 C-10.64126032 121.7216086 -0.09402908 113.05977566 9.921875 103.6953125 C12.376166 101.41275032 14.87988237 99.20850141 17.4140625 97.015625 C21.53407823 93.35256987 25.10851474 89.46225366 28.6015625 85.203125 C29.01164551 84.72133789 29.42172852 84.23955078 29.84423828 83.74316406 C39.10448438 72.84443839 49.63660709 59.21127151 48.6015625 44.203125 C46.14762996 38.05246184 43.34081613 36.34793486 37.50390625 33.65234375 C15.47132744 24.94314593 -9.3334798 24.07183913 -32.7109375 24.265625 C-55.05813167 24.41112368 -55.05813167 24.41112368 -62.3984375 19.203125 C-63.2109375 16.828125 -63.2109375 16.828125 -62.3984375 14.203125 C-48.73885384 1.05974653 -17.99163844 0.09409083 0 0 Z " fill="#000000" transform="translate(249.3984375,121.796875)"/>
<path d="M0 0 C14 0 14 0 17 2 C17.99024164 4.97072493 18.1234388 6.89405053 18.12025452 9.99235535 C18.12162918 11.02300613 18.12300385 12.05365692 18.12442017 13.11553955 C18.12082489 14.24554382 18.11722961 15.3755481 18.11352539 16.53979492 C18.11367142 17.73016861 18.11381744 18.9205423 18.1139679 20.14698792 C18.11339022 23.41118607 18.10837168 26.67534147 18.10139394 29.93953109 C18.09514664 33.35082422 18.09455551 36.76211817 18.09336853 40.17341614 C18.09025928 46.63319678 18.08205136 53.09296052 18.07201904 59.55273372 C18.06084531 66.90695364 18.05534427 74.26117437 18.05032361 81.61540067 C18.03986842 96.74360987 18.02227682 111.87180325 18 127 C18.41708221 126.24591354 18.83416443 125.49182709 19.2638855 124.71488953 C20.84720487 121.85389647 22.43184006 118.99363992 24.01730347 116.13383484 C24.69664556 114.90785947 25.37549739 113.68161228 26.05380249 112.45506287 C30.63391645 104.17405893 35.31392629 95.96238963 40.125 87.8125 C45.63168206 78.45250899 50.88468041 68.97790058 56.00244141 59.3996582 C56.51339355 58.44406006 57.0243457 57.48846191 57.55078125 56.50390625 C58.22620972 55.23268921 58.22620972 55.23268921 58.9152832 53.93579102 C60 52 60 52 61 51 C75.45128961 49.75266304 75.45128961 49.75266304 79.75 52.875 C85.31336716 60.60189883 86.250044 71.3818022 88.13671875 80.5390625 C88.4235131 81.91490494 88.71069549 83.29066655 88.99824524 84.66635132 C89.74678556 88.25260435 90.49011922 91.83991644 91.2322998 95.42749023 C91.99346483 99.10206592 92.75965125 102.77559411 93.52539062 106.44921875 C95.0217882 113.63180797 96.51267585 120.81552578 98 128 C104.36907473 114.62008698 110.24686431 101.03884032 116.125 87.4375 C117.15979605 85.04735917 118.19479091 82.65730441 119.22998047 80.26733398 C121.25338298 75.5950408 123.2757033 70.92228207 125.296875 66.24902344 C127.50812412 61.13637423 129.72153933 56.02467119 131.9375 50.9140625 C132.35632698 49.94810402 132.35632698 49.94810402 132.78361511 48.96263123 C133.05120132 48.34549759 133.31878754 47.72836395 133.59448242 47.0925293 C135.55709335 42.56590759 137.51803168 38.03856225 139.47900391 33.51123047 C142.12541096 27.40198067 144.77281363 21.2931623 147.42010498 15.18429565 C148.81786525 11.95881637 150.21557134 8.73331361 151.61328125 5.5078125 C152.40885417 3.671875 153.20442708 1.8359375 154 0 C155.93681161 -0.08107583 157.8745934 -0.13922475 159.8125 -0.1875 C160.89144531 -0.22230469 161.97039062 -0.25710938 163.08203125 -0.29296875 C166 0 166 0 167.88671875 1.07421875 C169.66004077 4.14175473 169.33697512 6.51557733 169 10 C167.84863281 13.36938477 167.84863281 13.36938477 166.203125 16.94140625 C165.90276337 17.60455841 165.60240173 18.26771057 165.29293823 18.95095825 C164.63667283 20.39642854 163.97452128 21.83923765 163.30718994 23.27963257 C161.8418275 26.44389668 160.40616482 29.6213615 158.96865845 32.7983551 C158.19380836 34.51059692 157.41755054 36.22220229 156.63998413 37.93321228 C152.44797371 47.17142538 148.41056365 56.47535749 144.38128662 65.78543091 C142.279204 70.64132041 140.17056377 75.49436106 138.0625 80.34765625 C137.64475311 81.30967453 137.22700623 82.27169281 136.79660034 83.26286316 C132.63940287 92.83460404 128.47371592 102.40259559 124.28948975 111.96255493 C123.52552081 113.70926445 122.76266521 115.45646143 122.0010376 117.20419312 C119.69960926 122.48420949 117.37498611 127.75262322 115 133 C114.71958862 133.62177124 114.43917725 134.24354248 114.15026855 134.88415527 C113.38450893 136.56302018 112.59530923 138.23113655 111.8046875 139.8984375 C111.37913574 140.79997559 110.95358398 141.70151367 110.51513672 142.63037109 C107.75542334 146.94648099 103.88950903 149.59887038 99 151 C95.44921875 151.1953125 95.44921875 151.1953125 91.6875 151.125 C90.43324219 151.10695313 89.17898438 151.08890625 87.88671875 151.0703125 C86.93410156 151.04710937 85.98148438 151.02390625 85 151 C82.65871608 142.03500175 80.7153502 133.01748523 78.8984375 123.93359375 C78.61395317 122.52297605 78.32916749 121.1124191 78.0440979 119.70191956 C77.30242773 116.02938094 76.56370808 112.35625643 75.82598877 108.68292236 C74.63912933 102.77368269 73.44950715 96.86500485 72.25642776 90.9570179 C71.84209549 88.90164167 71.43016307 86.8457944 71.0184021 84.78990173 C70.64263535 82.92634789 70.64263535 82.92634789 70.25927734 81.02514648 C69.92976578 79.38400124 69.92976578 79.38400124 69.59359741 77.70970154 C69.0334181 74.92376342 69.0334181 74.92376342 68 72 C67.39696045 73.13091064 67.39696045 73.13091064 66.78173828 74.28466797 C52.12168374 101.76024522 52.12168374 101.76024522 45.59765625 113.34375 C43.5379612 117.00688371 41.54434874 120.70254318 39.55859375 124.40625 C38.33082359 126.66671796 37.1029594 128.92713484 35.875 131.1875 C35.31288818 132.25186279 34.75077637 133.31622559 34.17163086 134.4128418 C30.7178248 140.72147286 27.15779133 146.06449206 21 150 C14.20130732 151.69967317 7.00793201 151 0 151 C0 101.17 0 51.34 0 0 Z " fill="#000000" transform="translate(1166,303)"/>
<path d="M0 0 C7.54662378 -0.07020041 15.09321278 -0.12316048 22.64009094 -0.15543652 C26.14624751 -0.17094485 29.65217712 -0.191903 33.15820312 -0.22631836 C76.60954371 -0.64120764 76.60954371 -0.64120764 90.1875 10.8515625 C97.60080011 18.60463886 98.48872197 26.87878629 98.42211914 37.19482422 C97.97464424 51.35263653 91.61405854 63.31846468 81.40625 72.96484375 C72.21051195 80.74240792 61.13543504 85.39688215 49 85 C63.86394919 112.09901648 63.86394919 112.09901648 79.65185547 138.66381836 C81.77488665 142.34279072 81.41205213 144.81080331 81 149 C77.47320901 151.35119399 75.97120515 151.21443452 71.8125 151.125 C70.72582031 151.10695313 69.63914062 151.08890625 68.51953125 151.0703125 C67.68808594 151.04710937 66.85664062 151.02390625 66 151 C63.62297036 146.85532807 61.24817145 142.70938206 58.875 138.5625 C58.51674133 137.93651917 58.15848267 137.31053833 57.78936768 136.66558838 C52.02851138 126.59492217 46.32813042 116.49258776 40.69482422 106.34985352 C37.61196472 100.81427288 34.43684704 95.36271747 31.08837891 89.98291016 C30 88 30 88 30 86 C20.43 86 10.86 86 1 86 C0.67 89.3 0.34 92.6 0 96 C-0.3138817 98.06613314 -0.65386714 100.12864395 -1.03149414 102.18408203 C-1.33169212 103.8346611 -1.33169212 103.8346611 -1.63795471 105.51858521 C-1.85153122 106.67003021 -2.06510773 107.82147522 -2.28515625 109.0078125 C-2.50570175 110.2144455 -2.72624725 111.42107849 -2.95347595 112.66427612 C-3.65274014 116.48521505 -4.3575304 120.30511006 -5.0625 124.125 C-5.54008018 126.72909945 -6.01729743 129.33326549 -6.49414062 131.9375 C-7.65856395 138.29244456 -8.82794146 144.64645939 -10 151 C-15.61 151 -21.22 151 -27 151 C-26.40050506 142.22332938 -25.2080867 133.73905185 -23.60742188 125.09326172 C-23.36211073 123.74508816 -23.11729817 122.3968238 -22.87294006 121.04847717 C-22.21498208 117.42629396 -21.54992483 113.80544896 -20.88331032 110.18485022 C-20.18464563 106.38419083 -19.49209525 102.58241691 -18.79870605 98.78079224 C-17.63585871 92.41042676 -16.46855369 86.04089116 -15.29833984 79.671875 C-13.94506497 72.30632402 -12.59803684 64.93965213 -11.25447989 57.57232273 C-9.95945142 50.47147984 -8.66092605 43.37128138 -7.36048889 36.27142715 C-6.80768789 33.25330468 -6.25596131 30.23498871 -5.70506287 27.2165184 C-5.05787534 23.67170966 -4.4075836 20.12748417 -3.75485039 16.58369255 C-3.40114754 14.65941388 -3.05045838 12.73458203 -2.69984436 10.80973816 C-2.489561 9.67159164 -2.27927765 8.53344513 -2.06262207 7.36080933 C-1.88048409 6.36795362 -1.6983461 5.37509792 -1.51068878 4.35215569 C-1 2 -1 2 0 0 Z M13 17 C11.71466632 24.2076154 10.43332574 31.41593237 9.15478516 38.62475586 C8.71918622 41.07804519 8.28266665 43.53117124 7.84521484 45.98413086 C7.21731478 49.5059241 6.59270631 53.02828744 5.96875 56.55078125 C5.77188599 57.65086014 5.57502197 58.75093903 5.37219238 59.88435364 C5.19200562 60.90518539 5.01181885 61.92601715 4.82617188 62.9777832 C4.58634583 64.32680473 4.58634583 64.32680473 4.3416748 65.70307922 C3.92643277 68.10752585 3.92643277 68.10752585 4 71 C40.47761353 73.15363369 40.47761353 73.15363369 72 58 C78.84011993 50.39654064 81.61900732 43.31899499 81.34765625 33.03125 C80.73553646 27.69411567 78.42367058 25.27765309 74.5625 21.8125 C62.13123427 15.48782094 48.23464716 16.64317397 34.6875 16.8125 C32.57878562 16.8275773 30.47006079 16.8412603 28.36132812 16.85351562 C23.24062326 16.88627231 18.12042945 16.93788593 13 17 Z " fill="#000000" transform="translate(1510,303)"/>
<path d="M0 0 C12.14874971 10.09002304 18.26859801 24.51538598 20 40 C21.73552543 70.25599328 12.79604912 98.92166536 -7.40625 121.71484375 C-20.54257418 135.53708359 -39.01385815 144.39314003 -58.1796875 145.23828125 C-77.18666786 145.68793488 -93.49407705 141.95263651 -107.7109375 128.48046875 C-120.28528154 114.85468638 -123.68873802 97.44068687 -123.24609375 79.421875 C-122.04268045 52.19240384 -110.26938545 25.06989353 -90.5703125 6.16015625 C-65.15851028 -15.19657115 -27.49452922 -21.07423808 0 0 Z M-83 23 C-83.69996094 23.66515625 -84.39992188 24.3303125 -85.12109375 25.015625 C-100.16163433 40.3786723 -106.37636143 64.91290184 -106.30493164 85.77270508 C-106.02464906 97.66392814 -102.1346434 108.3314851 -94.04296875 117.11328125 C-84.62637545 125.80967621 -72.57542091 128.98431992 -60 129 C-45.77229395 128.0433694 -33.91631675 123.08519265 -23 114 C-22.04867188 113.21882813 -22.04867188 113.21882813 -21.078125 112.421875 C-5.71329834 98.46666547 2.17034844 75.11304967 3.3828125 54.8671875 C3.88390758 40.34908401 1.53454419 27.28799861 -8.5 16.25 C-18.98421477 6.81420671 -28.8796882 3.46288558 -42.98828125 3.6875 C-59.09570786 4.62830856 -71.81071641 11.86675623 -83 23 Z " fill="#000000" transform="translate(1454,315)"/>
<path d="M0 0 C2.04829351 -0.01718002 4.09495861 -0.06104387 6.14282227 -0.10522461 C7.43381836 -0.11360352 8.72481445 -0.12198242 10.05493164 -0.13061523 C11.83637573 -0.15248901 11.83637573 -0.15248901 13.65380859 -0.17480469 C17.47949917 0.40511927 18.47406415 1.2070936 20.75415039 4.29516602 C20.78144836 7.36265564 20.78144836 7.36265564 20.10693359 11.02929688 C19.98951246 11.70342936 19.87209133 12.37756184 19.75111198 13.07212257 C19.35295277 15.32667535 18.92267671 17.5738775 18.49243164 19.82250977 C18.20253839 21.42735551 17.91476872 23.03258612 17.62898254 24.63816833 C17.01365578 28.07331882 16.38487124 31.50563056 15.74591064 34.9364624 C14.75238515 40.28026479 13.79892851 45.63070203 12.85327148 50.9831543 C11.0769425 61.0161072 9.26570122 71.042521 7.44702148 81.06787109 C6.75990134 84.86097347 6.07632623 88.6547117 5.39268017 92.44844151 C4.72946251 96.12632873 4.06412984 99.8038308 3.3981266 103.48121452 C3.0829127 105.22304717 2.76833757 106.96499554 2.45442772 108.70706367 C2.02157254 111.10735078 1.58588881 113.50710712 1.14941406 115.90673828 C1.02217453 116.61550613 0.894935 117.32427399 0.76383972 118.05451965 C0.24537607 120.89052636 -0.3324392 123.5549348 -1.24584961 126.29516602 C-0.41090973 126.29072479 0.42403015 126.28628357 1.28427124 126.28170776 C9.14205664 126.2416801 16.99980794 126.21120665 24.85767174 126.19154167 C28.89775303 126.18109195 32.93775028 126.16691121 36.9777832 126.14428711 C40.87459772 126.1226009 44.77133126 126.11060635 48.66820145 126.10541153 C50.15700175 126.10170815 51.64579749 126.09447664 53.13456345 126.0837059 C55.21537706 126.06924682 57.29585345 126.06718569 59.37670898 126.06811523 C60.56251556 126.06367401 61.74832214 126.05923279 62.97006226 126.05465698 C65.75415039 126.29516602 65.75415039 126.29516602 67.75415039 128.29516602 C68.63214707 135.61610887 67.55132269 143.18518508 65.75415039 150.29516602 C64.75415039 151.29516602 64.75415039 151.29516602 63.00689602 151.41821384 C62.24088605 151.41729205 61.47487608 151.41637026 60.68565369 151.41542053 C59.37098366 151.41748253 59.37098366 151.41748253 58.02975464 151.41958618 C56.57643234 151.41419327 56.57643234 151.41419327 55.09375 151.40869141 C54.07923264 151.40883743 53.06471527 151.40898346 52.01945496 151.40913391 C48.64844666 151.40843431 45.27749285 151.4006397 41.90649414 151.39282227 C39.57621796 151.39095825 37.24594139 151.38953427 34.91566467 151.38853455 C28.76877774 151.38470803 22.62191426 151.37487662 16.47503662 151.36383057 C10.20805173 151.3536193 3.94106307 151.34903754 -2.32592773 151.34399414 C-14.63257869 151.33325447 -26.9392122 151.31617645 -39.24584961 151.29516602 C-38.6041937 143.21067696 -37.28743141 135.30160898 -35.85327148 127.32421875 C-35.60813088 125.94512911 -35.36331273 124.56598211 -35.11878967 123.18678284 C-34.45912731 119.47191144 -33.79470803 115.75790613 -33.12915993 112.04408526 C-32.57333499 108.93979478 -32.01996302 105.83506915 -31.46660757 102.73033768 C-30.16250419 95.41337054 -28.85462817 88.09708498 -27.54418945 80.78125 C-26.19150555 73.22927704 -24.84448831 65.6763092 -23.50032949 58.1228146 C-22.34483478 51.63040885 -21.18625811 45.13855864 -20.02509165 38.64716488 C-19.33203049 34.77262897 -18.64006783 30.89790537 -17.95091248 27.02267265 C-17.3044224 23.38831472 -16.65408264 19.75466689 -16.0007 16.12154198 C-15.64637305 14.14586446 -15.29598805 12.16948126 -14.94569397 10.19308472 C-14.73541061 9.02818008 -14.52512726 7.86327545 -14.30847168 6.66307068 C-14.12633369 5.64457252 -13.94419571 4.62607435 -13.75653839 3.57671261 C-12.48311864 -2.11240101 -4.78017902 0.02796761 0 0 Z " fill="#000000" transform="translate(834.245849609375,301.704833984375)"/>
<path d="M0 0 C1.7492214 -0.08142927 3.49954542 -0.13938541 5.25 -0.1875 C6.22453125 -0.22230469 7.1990625 -0.25710938 8.203125 -0.29296875 C11.47298851 0.04954489 12.74850366 0.61940409 15 3 C16.05354767 6.69268915 15.96104457 9.53808925 15.28735352 13.29345703 C15.10709122 14.3244754 14.92682892 15.35549377 14.74110413 16.41775513 C14.53907883 17.51997406 14.33705353 18.62219299 14.12890625 19.7578125 C13.9277269 20.89781708 13.72654755 22.03782166 13.51927185 23.21237183 C12.87555562 26.8514939 12.21955322 30.48826447 11.5625 34.125 C10.91127999 37.76923964 10.26261491 41.41391403 9.61643982 45.05905151 C9.2136843 47.32669464 8.80758129 49.59374622 8.39784241 51.86013794 C8.21442795 52.88485199 8.03101349 53.90956604 7.84204102 54.96533203 C7.59769066 56.31837936 7.59769066 56.31837936 7.34840393 57.69876099 C6.92515373 60.10645572 6.92515373 60.10645572 7 63 C16.68734359 54.76321458 16.68734359 54.76321458 26.1875 46.3125 C29.5008308 43.30185521 32.88941929 40.43434822 36.375 37.625 C40.92860712 33.94363311 45.23582516 30.07225527 49.51904297 26.08642578 C53.5962853 22.31461458 57.85807939 18.81974142 62.1875 15.33984375 C65.92353744 12.23166816 69.48435676 8.95200465 73.02929688 5.62890625 C77.22114969 1.71575193 79.68648265 -0.2890584 85.5 -0.3125 C86.4590625 -0.32925781 87.418125 -0.34601563 88.40625 -0.36328125 C91 0 91 0 92.8046875 1.31640625 C94.94299556 4.32820616 94.59462141 6.43227155 94 10 C90.17672459 15.47624267 84.04018141 19.46971742 78.890625 23.61328125 C76.00762428 25.99370482 73.24921167 28.46679782 70.5 31 C66.05272888 35.09351091 61.45282537 38.92442499 56.75 42.71875 C53.91900422 45.06718968 51.20616402 47.50909902 48.5 50 C44.06290339 54.08414574 39.47515022 57.90796081 34.78125 61.69140625 C30.83045874 64.97078495 27.07391297 68.44007211 23.3125 71.93359375 C21 74 21 74 18 76 C19.32856194 78.92643237 20.79564177 81.0700763 23.01171875 83.390625 C23.60098145 84.01340332 24.19024414 84.63618164 24.79736328 85.27783203 C25.4211084 85.92864746 26.04485352 86.57946289 26.6875 87.25 C27.97095019 88.60592129 29.25351396 89.96268222 30.53515625 91.3203125 C31.14375488 91.96387695 31.75235352 92.60744141 32.37939453 93.27050781 C34.7115957 95.75940704 36.94016481 98.32892255 39.1640625 100.9140625 C41.72491887 103.82363123 44.36412017 106.65845566 47 109.5 C50.76125115 113.55544005 54.46785233 117.64089788 58.078125 121.83203125 C59.68849697 123.64860939 61.32474459 125.42802086 62.984375 127.19921875 C63.52126953 127.77349609 64.05816406 128.34777344 64.61132812 128.93945312 C65.67909485 130.07848914 66.75054054 131.21409098 67.82617188 132.34570312 C71.46586128 136.23150937 74.67560355 139.68288247 75.4375 145.125 C75 148 75 148 73.26879883 149.63671875 C69.27261829 152.03795324 65.48745041 152.03861336 61 151 C57.71612559 148.7927459 55.33929212 146.02209366 52.8125 143 C52.15314453 142.25621094 51.49378906 141.51242187 50.81445312 140.74609375 C48.84915585 138.51940226 46.92296472 136.26327301 45 134 C40.93777959 129.3148773 36.82939018 124.68291248 32.625 120.125 C28.45136191 115.58956046 24.30775205 111.02903315 20.19140625 106.44140625 C18.68133672 104.75906498 17.16812565 103.07954003 15.65234375 101.40234375 C11.36541105 96.65737484 7.13542387 91.87767944 3 87 C1.62061759 90.91528926 0.58403633 94.70230322 -0.12915039 98.79003906 C-0.32597916 99.9042926 -0.52280792 101.01854614 -0.7256012 102.16656494 C-0.93087936 103.35425476 -1.13615753 104.54194458 -1.34765625 105.765625 C-1.56441513 106.99537048 -1.78117401 108.22511597 -2.00450134 109.49212646 C-2.577687 112.74584015 -3.1473024 116.0001487 -3.71466064 119.25488281 C-4.5165198 123.85414094 -5.32158466 128.45282259 -6.13121033 133.05072021 C-6.56171984 135.49633808 -6.98917925 137.94249515 -7.41334534 140.38922119 C-7.60702194 141.49086609 -7.80069855 142.59251099 -8.00024414 143.72753906 C-8.16964005 144.69983459 -8.33903595 145.67213013 -8.51356506 146.67388916 C-9 149 -9 149 -10 151 C-15.61 151 -21.22 151 -27 151 C-26.32501274 143.01294458 -25.06144528 135.23152594 -23.60742188 127.35205078 C-23.36225592 126.00739101 -23.11743858 124.66266764 -22.87294006 123.31788635 C-22.21334769 119.69575633 -21.54883409 116.07454546 -20.88331032 112.45350122 C-20.18571567 108.65357079 -19.49248494 104.85284417 -18.79870605 101.05221558 C-17.6345895 94.67852486 -16.46748859 88.30538666 -15.29833984 81.93261719 C-13.79811798 73.75515562 -12.30283621 65.57679883 -10.80910492 57.39814949 C-9.52266695 50.35470513 -8.23399776 43.31166928 -6.94495583 36.26870108 C-6.53144462 34.00887607 -6.11823465 31.74899613 -5.70506287 29.48910904 C-5.05627926 25.94133415 -4.40610459 22.39381685 -3.75485039 18.84649467 C-3.40233123 16.92475069 -3.05106987 15.00277612 -2.69984436 13.08079529 C-2.489561 11.93700912 -2.27927765 10.79322296 -2.06262207 9.61477661 C-1.88048409 8.62116686 -1.6983461 7.62755711 -1.51068878 6.60383797 C-1.07421962 4.37842198 -0.57650049 2.19262875 0 0 Z " fill="#000000" transform="translate(1647,303)"/>
<path d="M0 0 C0.66397293 -0.00014603 1.32794586 -0.00029205 2.01203918 -0.0004425 C4.19254904 0.00025056 6.37297198 0.0080144 8.5534668 0.01586914 C10.07089695 0.01773548 11.5883277 0.01915836 13.10575867 0.02015686 C17.08909789 0.02396507 21.07240035 0.0337808 25.0557251 0.04486084 C29.12462873 0.0551115 33.19353833 0.0596623 37.26245117 0.06469727 C45.23837946 0.07540465 53.21427792 0.09246061 61.19018555 0.11352539 C61.24402403 2.5721494 61.28377593 5.02960089 61.31518555 7.48852539 C61.33194336 8.18719727 61.34870117 8.88586914 61.3659668 9.60571289 C61.38362821 11.44250025 61.29321815 13.27954502 61.19018555 15.11352539 C58.51489211 17.78881882 57.19746997 17.36970298 53.45874023 17.38476562 C52.25699158 17.39495224 51.05524292 17.40513885 49.81707764 17.41563416 C48.511922 17.4177742 47.20676636 17.41991425 45.86206055 17.42211914 C44.51164661 17.43321681 43.16124276 17.44560988 41.81085205 17.45924377 C36.07231842 17.51466552 30.33371045 17.54526586 24.5949707 17.56982422 C21.08469689 17.58575188 17.5747686 17.61603122 14.06467438 17.6545887 C12.08287548 17.67182932 10.10095347 17.67229313 8.11907959 17.67247009 C6.29754364 17.69247826 6.29754364 17.69247826 4.43920898 17.71289062 C3.37490662 17.71796127 2.31060425 17.72303192 1.21405029 17.72825623 C-3.83154752 18.37111344 -7.02304047 20.34423527 -10.62231445 23.86352539 C-13.13674077 27.59924449 -13.80981445 29.62204282 -13.80981445 34.11352539 C-11.19362138 45.51265236 -0.51267173 53.54153254 7.57299805 61.41821289 C9.33531492 63.15328266 11.09701519 64.88897892 12.8581543 66.62524414 C15.58838355 69.31228443 18.32212511 71.99528269 21.06665039 74.66772461 C23.7472366 77.28116426 26.41114393 79.91071343 29.07299805 82.54321289 C29.88358673 83.32485809 30.69417542 84.1065033 31.52932739 84.91183472 C40.2261424 93.56799502 47.11740179 103.61524573 47.21362305 116.17211914 C46.7735645 126.00395351 44.53100643 136.97765129 37.19018555 144.11352539 C27.18699995 151.29972194 16.81807297 151.39781316 4.97143555 151.30883789 C3.50313511 151.30510172 2.03483216 151.30225761 0.56652832 151.30026245 C-3.27379395 151.29267346 -7.11396182 151.27306642 -10.95422363 151.25085449 C-14.8826285 151.23029332 -18.81105863 151.2212389 -22.73950195 151.21118164 C-30.42967605 151.18981541 -38.11972351 151.15573761 -45.80981445 151.11352539 C-45.86380432 148.84295162 -45.90260187 146.57201251 -45.93481445 144.30102539 C-45.95801758 143.03645508 -45.9812207 141.77188477 -46.00512695 140.46899414 C-45.80981445 137.11352539 -45.80981445 137.11352539 -43.80981445 134.11352539 C-41.42796326 133.73498535 -41.42796326 133.73498535 -38.40136719 133.72875977 C-37.26936386 133.71864868 -36.13736053 133.7085376 -34.97105408 133.69812012 C-33.74093094 133.70114136 -32.5108078 133.7041626 -31.2434082 133.70727539 C-29.98021255 133.69643921 -28.71701691 133.68560303 -27.4155426 133.67443848 C-23.35940782 133.64004763 -19.3035615 133.6239651 -15.24731445 133.61352539 C-9.93325306 133.59975716 -4.61982102 133.56511979 0.6940918 133.51977539 C1.91004532 133.52279663 3.12599884 133.52581787 4.37879944 133.52893066 C11.00565623 133.4708711 17.19087957 133.19256075 23.19018555 130.11352539 C26.95059772 126.25910291 28.37856549 123.42808657 28.62768555 118.11352539 C28.68827148 117.22665039 28.74885742 116.33977539 28.8112793 115.42602539 C27.02520702 105.90030658 19.48491863 98.85557423 12.8112793 92.34399414 C11.47674461 91.01794914 11.47674461 91.01794914 10.11524963 89.66511536 C7.77181339 87.34013329 5.4200166 85.02408967 3.06359863 82.71228027 C0.67208708 80.36183693 -1.70803667 77.99992348 -4.08911133 75.63891602 C-7.578349 72.18221881 -11.07262762 68.73081134 -14.57373047 65.28613281 C-31.60577827 48.52166531 -31.60577827 48.52166531 -32.18481445 34.80102539 C-31.70318973 23.46277663 -28.62765677 13.64047559 -20.30981445 5.73852539 C-13.48233146 1.30066144 -8.07367399 -0.01497899 0 0 Z " fill="#000000" transform="translate(1790.809814453125,302.886474609375)"/>
<path d="M0 0 C4.21746325 -0.0989211 8.43431121 -0.17149012 12.65258789 -0.21972656 C14.08727786 -0.23983525 15.52188593 -0.26712673 16.95629883 -0.30175781 C19.01924839 -0.3503146 21.08111431 -0.37297406 23.14453125 -0.390625 C24.38565674 -0.41157227 25.62678223 -0.43251953 26.90551758 -0.45410156 C30 0 30 0 31.7351141 1.62705326 C33.47741115 4.89563117 32.97000278 6.80012407 32.33265686 10.42124939 C32.12183535 11.66992735 31.91101383 12.91860531 31.69380379 14.20512199 C31.46484854 15.45743174 31.23589329 16.70974148 31 18 C30.81493834 19.09111147 30.62987667 20.18222294 30.43920708 21.30639839 C29.87276097 24.62828297 29.27823975 27.9441645 28.67749023 31.26000977 C28.45447235 32.50247971 28.23145447 33.74494965 28.00167847 35.02507019 C27.39862623 38.38438161 26.7925201 41.74313509 26.18577456 45.10178113 C25.54787639 48.63581045 24.91279 52.17034512 24.27735901 55.70481873 C23.21235427 61.62650874 22.14553047 67.54786851 21.07739258 73.46899414 C19.57212538 81.81333483 18.07033606 90.15829879 16.56915367 98.50337517 C15.52567583 104.30334652 14.48138772 110.10317202 13.43693662 115.90296817 C13.1845704 117.30435786 12.93222486 118.70575128 12.67989993 120.10714841 C11.85175002 124.7064198 11.02266235 129.30552137 10.19311523 133.90454102 C9.98478561 135.06146454 9.77645599 136.21838806 9.56181335 137.41036987 C9.36980347 138.47402267 9.17779358 139.53767548 8.97996521 140.63356018 C8.81387473 141.55468377 8.64778425 142.47580736 8.47666073 143.42484379 C8.0084305 145.95445427 7.50452448 148.4773776 7 151 C-4.22 151 -15.44 151 -27 151 C-25.87496573 139.74965731 -25.87496573 139.74965731 -24.93737793 134.53393555 C-24.72709457 133.35351181 -24.51681122 132.17308807 -24.30015564 130.95689392 C-24.0715535 129.69623611 -23.84295135 128.43557831 -23.60742188 127.13671875 C-23.36227295 125.76910567 -23.11745507 124.40143322 -22.87294006 123.03370667 C-22.21330068 119.34974929 -21.54885045 115.66667524 -20.88331032 111.98377991 C-20.18602352 108.12145737 -19.49266049 104.25843019 -18.79870605 100.39550781 C-17.63464094 93.91926634 -16.46743652 87.44359665 -15.29833984 80.96826172 C-13.94617001 73.47870829 -12.59900653 65.98826732 -11.25447989 58.49733829 C-9.95934864 51.28226453 -8.66072486 44.06782366 -7.36048889 36.85366821 C-6.80753311 33.78533076 -6.25580723 30.7167759 -5.70506287 27.64804077 C-5.0578216 24.04253991 -4.40753251 20.43760198 -3.75485039 16.8330822 C-3.4011176 14.87538582 -3.050443 12.91713765 -2.69984436 10.95887756 C-2.489561 9.80101242 -2.27927765 8.64314728 -2.06262207 7.45019531 C-1.88048409 6.43999329 -1.6983461 5.42979126 -1.51068878 4.38897705 C-1 2 -1 2 0 0 Z " fill="#000000" transform="translate(945,302)"/>
</svg>
