<?xml version="1.0" encoding="UTF-8"?>
<svg version="1.1" xmlns="http://www.w3.org/2000/svg" width="1280" height="248">
<path d="M0 0 C1.55979525 -0.02160066 3.11946861 -0.05572917 4.67871094 -0.10253906 C6.9299109 -0.16949368 9.17860951 -0.19698297 11.43066406 -0.21606445 C12.12557953 -0.24389511 12.820495 -0.27172577 13.53646851 -0.30039978 C15.51806641 -0.29199219 15.51806641 -0.29199219 18.96972656 0.4050293 C21.30664062 3.16943359 21.30664062 3.16943359 22.96972656 6.4050293 C23.3607959 7.15300781 23.75186523 7.90098633 24.15478516 8.67163086 C24.63165771 9.72302246 24.63165771 9.72302246 25.11816406 10.7956543 C25.48031006 11.58182129 25.84245605 12.36798828 26.21557617 13.17797852 C26.5881958 13.99540527 26.96081543 14.81283203 27.34472656 15.6550293 C30.79965409 23.14069736 30.79965409 23.14069736 34.90722656 30.2800293 C38.51174725 35.98552751 41.21532478 42.12308721 44.07348633 48.22363281 C47.49053051 55.484932 51.151569 62.58209366 54.96191406 69.64331055 C55.63300022 70.89624618 56.30223135 72.15017692 56.96972656 73.4050293 C57.53675293 74.46923096 57.53675293 74.46923096 58.11523438 75.55493164 C58.48229492 76.26214355 58.84935547 76.96935547 59.22753906 77.69799805 C59.56156738 78.33632568 59.8955957 78.97465332 60.23974609 79.63232422 C60.96972656 81.4050293 60.96972656 81.4050293 60.96972656 84.4050293 C61.62972656 84.4050293 62.28972656 84.4050293 62.96972656 84.4050293 C64.61972656 87.7050293 66.26972656 91.0050293 67.96972656 94.4050293 C67.98003403 93.24213882 67.99034149 92.07924835 68.0009613 90.88111877 C68.09851689 79.94728021 68.20123356 69.01350083 68.30906582 58.07975864 C68.36434214 52.457978 68.41776952 46.8361922 68.46704102 41.21435547 C68.51461529 35.79380031 68.56695531 30.3733106 68.62266731 24.95283318 C68.64312241 22.87989865 68.66183014 20.80694616 68.67880058 18.73398018 C68.70277502 15.84114171 68.7328387 12.94842821 68.7644043 10.05566406 C68.77015976 9.18964066 68.77591522 8.32361725 68.78184509 7.43135071 C68.8556744 1.51908146 68.8556744 1.51908146 69.96972656 0.4050293 C71.7265833 0.30553853 73.48739989 0.2742267 75.24707031 0.2722168 C76.31763672 0.27092773 77.38820313 0.26963867 78.49121094 0.26831055 C80.18213867 0.27411133 80.18213867 0.27411133 81.90722656 0.2800293 C83.59235352 0.27422852 83.59235352 0.27422852 85.31152344 0.26831055 C86.91930664 0.27024414 86.91930664 0.27024414 88.55957031 0.2722168 C90.04251587 0.27390869 90.04251587 0.27390869 91.55541992 0.27563477 C93.96972656 0.4050293 93.96972656 0.4050293 95.96972656 1.4050293 C95.99305455 19.90225662 96.01070524 38.39948097 96.02153873 56.89671993 C96.02670191 65.48469979 96.03374501 74.07267053 96.04516602 82.66064453 C96.05511221 90.14318347 96.06157983 97.6257158 96.06381506 105.10826117 C96.06512227 109.07267516 96.06820882 113.03707025 96.07545662 117.0014782 C96.08221582 120.72863142 96.08434373 124.45575787 96.08283424 128.18291664 C96.08311062 129.55478435 96.08511634 130.92665289 96.08893204 132.29851532 C96.09386764 134.16363893 96.0921245 136.02877673 96.08998108 137.89390564 C96.09090287 138.94014068 96.09182467 139.98637571 96.09277439 141.06431484 C95.96972656 143.4050293 95.96972656 143.4050293 94.96972656 144.4050293 C90.44598179 144.64772736 85.91674588 144.63355187 81.38720703 144.64526367 C79.11095518 144.65496017 76.83560965 144.68596559 74.55957031 144.7175293 C73.11556527 144.72406008 71.67155376 144.72931026 70.22753906 144.7331543 C68.90898926 144.7425 67.59043945 144.7518457 66.23193359 144.76147461 C62.96972656 144.4050293 62.96972656 144.4050293 61.1262207 143.08862305 C59.19304473 140.27435631 57.75225074 137.2260699 56.28222656 134.1550293 C55.57171796 132.70105715 54.85943559 131.24795062 54.14550781 129.7956543 C53.78408691 129.06024414 53.42266602 128.32483398 53.05029297 127.56713867 C51.42270072 124.31048324 49.70084479 121.10751257 47.96972656 117.9050293 C42.98296499 108.63208534 38.19963283 99.25668767 33.78222656 89.69799805 C26.57977164 72.96263083 26.57977164 72.96263083 15.96972656 58.4050293 C15.26261978 56.75511347 14.59028667 55.08940674 13.96972656 53.4050293 C13.79315381 59.80062576 13.62817495 66.19645868 13.46972656 72.5925293 C13.43321487 74.04740753 13.43321487 74.04740753 13.39596558 75.53167725 C13.1120032 87.1146343 12.93023631 98.689423 12.97363281 110.27612305 C12.97716766 111.3100267 12.98070251 112.34393036 12.98434448 113.40916443 C13.00502315 118.425228 13.04117822 123.4407261 13.09472656 128.45654297 C13.1066252 130.27530808 13.1183532 132.09407431 13.12988281 133.9128418 C13.14338272 134.74726303 13.15688263 135.58168427 13.17079163 136.44139099 C13.17952514 138.43038076 13.08431198 140.41932369 12.96972656 142.4050293 C10.96972656 144.4050293 10.96972656 144.4050293 8.47949219 144.64794922 C6.94325195 144.64178589 6.94325195 144.64178589 5.37597656 144.63549805 C4.26351562 144.63356445 3.15105469 144.63163086 2.00488281 144.62963867 C0.83828125 144.61739258 -0.32832031 144.60514648 -1.53027344 144.5925293 C-3.28017578 144.5915625 -3.28017578 144.5915625 -5.06542969 144.59057617 C-13.74974614 144.54529295 -13.74974614 144.54529295 -16.03027344 143.4050293 C-16.03027344 96.5450293 -16.03027344 49.6850293 -16.03027344 1.4050293 C-11.52187843 -0.84916821 -5.00440765 0.0521512 0 0 Z " fill="#010101" transform="translate(639.0302734375,40.594970703125)"/>
<path d="M0 0 C8.95582873 8.26565477 15.92663079 18.65625403 17 31 C17.33 31.33 17.66 31.66 18 32 C18.10968019 33.86905586 18.14910693 35.74226935 18.16113281 37.61450195 C18.17074036 38.81698074 18.1803479 40.01945953 18.19024658 41.25837708 C18.19449646 42.57174545 18.19874634 43.88511383 18.203125 45.23828125 C18.20887975 46.5981598 18.21463745 47.95803834 18.22039795 49.31791687 C18.23092784 52.18045428 18.23675497 55.04296351 18.24023438 57.90551758 C18.24567132 61.54212825 18.26958573 65.17835535 18.29820633 68.81484699 C18.31701831 71.63161726 18.32204842 74.44829946 18.32357025 77.26512718 C18.3280066 79.2478662 18.34657944 81.23055773 18.36553955 83.21321106 C18.33918873 94.07589495 17.01672485 103.89252906 10.9375 113.0625 C10.24527344 114.12597656 9.55304688 115.18945312 8.83984375 116.28515625 C7.92912109 117.62900391 7.92912109 117.62900391 7 119 C6.34 119.99 5.68 120.98 5 122 C4.34 122 3.68 122 3 122 C3 122.66 3 123.32 3 124 C-2.9842536 129.16937652 -9.59000209 132.4305086 -17 135 C-18.4540625 135.5878125 -18.4540625 135.5878125 -19.9375 136.1875 C-38.80643636 141.19354434 -61.03753777 138.997859 -77.96484375 129.34375 C-87.9072343 122.77910058 -95.29212914 112.30569551 -99 101 C-100.36056945 94.04820746 -100.14382187 87.06001753 -100.1328125 80 C-100.13348731 78.63671857 -100.1344588 77.27343727 -100.13571167 75.91015625 C-100.13718033 73.06248827 -100.13506095 70.2148518 -100.13037109 67.3671875 C-100.12467431 63.73264049 -100.12795778 60.09816735 -100.13394356 56.46362305 C-100.13757169 53.65136161 -100.13640026 50.83911745 -100.13381577 48.02685547 C-100.13283232 46.04003857 -100.1358483 44.05322098 -100.13894653 42.06640625 C-100.10092108 27.37133037 -96.59893067 15.5187168 -87 4 C-86.34 4 -85.68 4 -85 4 C-85 3.34 -85 2.68 -85 2 C-83.35 1.34 -81.7 0.68 -80 0 C-80 -0.66 -80 -1.32 -80 -2 C-54.63583688 -15.46654022 -24.35693977 -16.72705502 0 0 Z M-63.37109375 20.49609375 C-69.82232255 28.78506132 -70.45227101 37.61573652 -70.3984375 47.8125 C-70.40130768 49.02139893 -70.40417786 50.23029785 -70.40713501 51.47583008 C-70.40916796 54.02067536 -70.40369221 56.56553655 -70.39111328 59.11035156 C-70.37504976 62.98798834 -70.39098938 66.86458284 -70.41015625 70.7421875 C-70.40817368 73.22396062 -70.40432973 75.70573309 -70.3984375 78.1875 C-70.40451019 79.33774658 -70.41058289 80.48799316 -70.4168396 81.6730957 C-70.34328918 90.16202017 -69.18807747 98.00737384 -64 105 C-63.34 105 -62.68 105 -62 105 C-61.62294922 105.92232422 -61.62294922 105.92232422 -61.23828125 106.86328125 C-59.7957939 109.35236826 -58.7616303 109.98164546 -56.1875 111.1875 C-55.52105469 111.51105469 -54.85460937 111.83460938 -54.16796875 112.16796875 C-46.03743278 115.28833661 -36.1292805 115.15698816 -28.03125 112.046875 C-24.50339657 110.22867362 -21.76655931 107.81712305 -19 105 C-18.2575 104.2575 -17.515 103.515 -16.75 102.75 C-11.83178264 95.02137272 -11.55225866 86.4787269 -11.6015625 77.5625 C-11.59725723 75.82141968 -11.59725723 75.82141968 -11.59286499 74.04516602 C-11.59083437 71.60464995 -11.59629359 69.16411723 -11.60888672 66.72363281 C-11.62495372 63.01069375 -11.6090027 59.29884314 -11.58984375 55.5859375 C-11.59182636 53.20312262 -11.5956704 50.82030842 -11.6015625 48.4375 C-11.59548981 47.33929932 -11.58941711 46.24109863 -11.5831604 45.10961914 C-11.64495343 38.26092405 -12.6385117 32.43554655 -15 26 C-15.66 26 -16.32 26 -17 26 C-17.2475 24.948125 -17.2475 24.948125 -17.5 23.875 C-20.49323964 18.13795737 -26.67646261 14.46950743 -32.73828125 12.46875 C-43.45057083 10.24858636 -55.69910244 12.12466164 -63.37109375 20.49609375 Z " fill="#000000" transform="translate(577,50)"/>
<path d="M0 0 C6.78092118 6.68120175 10.1988924 15.68937197 10.375 25.21875 C10.125 28.09375 10.125 28.09375 9.125 29.09375 C7.19832493 29.18123207 5.26848139 29.20072334 3.33984375 29.19140625 C1.58510742 29.18657227 1.58510742 29.18657227 -0.20507812 29.18164062 C-1.43677734 29.17326172 -2.66847656 29.16488281 -3.9375 29.15625 C-5.79084961 29.14948242 -5.79084961 29.14948242 -7.68164062 29.14257812 C-10.74614117 29.13074608 -13.81054721 29.11426173 -16.875 29.09375 C-17.20838379 28.3294165 -17.54176758 27.56508301 -17.88525391 26.77758789 C-18.32788574 25.77977295 -18.77051758 24.78195801 -19.2265625 23.75390625 C-19.66307129 22.76269775 -20.09958008 21.77148926 -20.54931641 20.75024414 C-22.79789686 16.24438706 -25.38931485 14.7001521 -29.9375 12.84375 C-38.27447057 10.82321783 -46.14441239 11.57984654 -53.875 15.09375 C-54.865 15.42375 -55.855 15.75375 -56.875 16.09375 C-57.99585312 18.4368309 -57.99585312 18.4368309 -58.875 21.09375 C-59.225625 21.733125 -59.57625 22.3725 -59.9375 23.03125 C-62.35592049 28.35177507 -62.000524 34.24811005 -61.9375 39.96875 C-61.93298828 40.7525 -61.92847656 41.53625 -61.92382812 42.34375 C-61.91214093 44.26045014 -61.89420908 46.17711048 -61.875 48.09375 C-60.94558594 47.60003906 -60.01617188 47.10632813 -59.05859375 46.59765625 C-57.81017585 45.9499808 -56.56146195 45.30287569 -55.3125 44.65625 C-54.70341797 44.33076172 -54.09433594 44.00527344 -53.46679688 43.66992188 C-49.26088321 41.51133126 -45.62825404 40.61522932 -40.875 40.09375 C-40.545 39.76375 -40.215 39.43375 -39.875 39.09375 C-25.12618377 38.27542858 -12.1111849 39.72424283 -0.5 49.59375 C7.08178116 56.4334845 11.30822844 64.67983836 12.60253906 74.84375 C12.79320052 78.7727736 12.80800776 82.66082357 12.75 86.59375 C12.76933594 87.90472656 12.78867188 89.21570313 12.80859375 90.56640625 C12.74451364 103.47214117 9.238319 114.71462586 0.125 124.09375 C-5.22187836 129.06189114 -11.04265221 131.70069418 -17.875 134.09375 C-18.885625 134.485625 -19.89625 134.8775 -20.9375 135.28125 C-35.47708961 139.30283862 -54.28470552 138.97518483 -67.875 132.09375 C-70.9719649 130.21927125 -73.93233771 128.19995001 -76.875 126.09375 C-77.865 125.43375 -78.855 124.77375 -79.875 124.09375 C-79.875 123.43375 -79.875 122.77375 -79.875 122.09375 C-80.865 121.76375 -81.855 121.43375 -82.875 121.09375 C-82.875 120.10375 -82.875 119.11375 -82.875 118.09375 C-83.535 118.09375 -84.195 118.09375 -84.875 118.09375 C-85.67331456 116.72259903 -86.4633061 115.34660116 -87.25 113.96875 C-87.91128906 112.82019531 -87.91128906 112.82019531 -88.5859375 111.6484375 C-91.318836 106.23232956 -92.17566808 101.36915076 -92.18139648 95.35107422 C-92.18972 94.5989415 -92.19804352 93.84680878 -92.20661926 93.07188416 C-92.23061526 90.59734841 -92.23948044 88.1230771 -92.24609375 85.6484375 C-92.25507105 83.91456021 -92.26419308 82.18068367 -92.27345276 80.44680786 C-92.28991928 76.81380335 -92.29763806 73.1808907 -92.30053711 69.54785156 C-92.30590513 64.92133081 -92.34352926 60.29568971 -92.38928127 55.66941643 C-92.41921966 52.08658809 -92.42626435 48.50396679 -92.42726326 44.92102432 C-92.43143573 43.21717443 -92.44374874 41.5133222 -92.46478081 39.80959702 C-92.61182596 26.86315285 -90.70523404 16.79506985 -82.875 6.09375 C-82.4625 5.26875 -82.05 4.44375 -81.625 3.59375 C-75.86548456 -4.63412921 -64.4389076 -9.85684123 -54.875 -11.90625 C-35.54874264 -14.72808045 -15.31519115 -13.1553565 0 0 Z M-61.64453125 74.765625 C-63.55909694 78.38810484 -63.26936054 81.87543697 -63.1875 85.90625 C-63.19072266 86.68806641 -63.19394531 87.46988281 -63.19726562 88.27539062 C-63.12815114 95.79630362 -61.75657031 102.15670503 -56.875 108.09375 C-50.1161563 113.14679029 -43.0446068 113.73807911 -34.875 113.09375 C-28.61695022 112.00059707 -24.94010313 109.84499509 -21.06640625 104.8125 C-15.95416513 97.43746363 -16.65331972 89.83262012 -16.875 81.09375 C-16.86855469 80.34480469 -16.86210938 79.59585938 -16.85546875 78.82421875 C-17.07788912 73.45435545 -19.39952743 70.43558403 -22.9921875 66.7265625 C-27.51980358 62.80012366 -32.54918998 62.69681117 -38.30078125 62.8515625 C-47.49644623 63.71670852 -55.01862289 68.50538487 -61.64453125 74.765625 Z " fill="#000000" transform="translate(1029.875,50.90625)"/>
<path d="M0 0 C0.59554688 0.53625 1.19109375 1.0725 1.8046875 1.625 C2.42085937 2.16125 3.03703125 2.6975 3.671875 3.25 C12.73201435 11.64909914 16.98951644 23.25626994 18.17379761 35.41436768 C18.3120625 39.43070032 18.33598989 43.42769845 18.30078125 47.4453125 C18.30093684 48.92113313 18.30243572 50.39695415 18.30519104 51.87277222 C18.30656265 54.94027143 18.29422529 58.00729603 18.27124023 61.07470703 C18.2428084 64.97221183 18.24562325 68.86893342 18.25833035 72.76649666 C18.26534073 75.80547579 18.25743857 78.84427927 18.24507332 81.88323593 C18.24061419 83.31909381 18.24017247 84.75497091 18.24413872 86.19083023 C18.26762598 102.16155206 15.28757498 116.82314342 3.8046875 128.625 C3.1446875 128.625 2.4846875 128.625 1.8046875 128.625 C1.4746875 129.615 1.1446875 130.605 0.8046875 131.625 C-1.70703125 133.16015625 -1.70703125 133.16015625 -4.8828125 134.6875 C-5.91792969 135.19410156 -6.95304687 135.70070312 -8.01953125 136.22265625 C-22.52506051 142.62792686 -42.66023826 143.00526628 -57.6953125 137.9375 C-70.50811651 132.87743636 -79.2315858 125.63943077 -85.1875 113.08203125 C-87.43127125 107.61175173 -88.49133509 102.91712079 -88.4699707 97.00244141 C-88.47508163 96.26339066 -88.48019257 95.5243399 -88.48545837 94.76289368 C-88.49929139 92.33403287 -88.49840225 89.90545787 -88.49609375 87.4765625 C-88.4999844 85.77794287 -88.50431983 84.07932421 -88.50907898 82.38070679 C-88.51652786 78.82506147 -88.51625978 75.26951547 -88.51098633 71.71386719 C-88.50519632 67.17236549 -88.52211773 62.63127224 -88.545331 58.08983803 C-88.5601115 54.58266855 -88.56093414 51.07559644 -88.55782127 47.56840134 C-88.55833241 45.89477098 -88.56353095 44.22113488 -88.57363319 42.54753494 C-88.58606326 40.2002079 -88.57916719 37.85366354 -88.56762695 35.50634766 C-88.57527069 34.82452927 -88.58291443 34.14271088 -88.59078979 33.44023132 C-88.51595421 26.50308519 -85.83154736 20.85669071 -83.0078125 14.625 C-82.49154297 13.4803125 -82.49154297 13.4803125 -81.96484375 12.3125 C-81.71089844 11.755625 -81.45695312 11.19875 -81.1953125 10.625 C-80.5353125 10.625 -79.8753125 10.625 -79.1953125 10.625 C-78.95941406 9.88378906 -78.72351562 9.14257812 -78.48046875 8.37890625 C-75.25664628 1.47071524 -67.14555772 -2.91270826 -60.26953125 -5.63671875 C-42.34976286 -12.0149414 -15.34913192 -12.73786881 0 0 Z M-54.1953125 22.625 C-57.56128372 27.67395683 -58.44755941 31.42415882 -58.48583984 37.49145508 C-58.49255707 38.16208481 -58.49927429 38.83271454 -58.50619507 39.52366638 C-58.5251214 41.73069768 -58.52909667 43.93742394 -58.53125 46.14453125 C-58.53768233 47.68763857 -58.54441102 49.23074469 -58.55142212 50.77384949 C-58.56338194 54.00591863 -58.56710435 57.237881 -58.56591797 60.4699707 C-58.565715 64.59573506 -58.59299898 68.72080886 -58.62746239 72.8464098 C-58.64978762 76.03361608 -58.65375378 79.22065775 -58.65269852 82.40793419 C-58.65504672 83.92807072 -58.66382598 85.44821232 -58.67936325 86.96827126 C-58.85663898 98.41449498 -58.85663898 98.41449498 -54.1953125 108.625 C-53.2053125 108.955 -52.2153125 109.285 -51.1953125 109.625 C-50.8653125 110.615 -50.5353125 111.605 -50.1953125 112.625 C-42.94483581 116.90937259 -35.65482452 117.60760434 -27.5078125 115.8125 C-20.50046881 113.30043339 -17.58464475 110.11824705 -14.1953125 103.625 C-12.37009923 99.73379342 -11.93469667 96.64407946 -11.90478516 92.35693359 C-11.89202545 91.11148773 -11.87926575 89.86604187 -11.86611938 88.58285522 C-11.86306017 87.22971757 -11.86083325 85.87657782 -11.859375 84.5234375 C-11.85293933 83.12203844 -11.8462104 81.7206407 -11.83920288 80.31924438 C-11.8272435 77.38223157 -11.82352033 74.44533621 -11.82470703 71.50830078 C-11.82490938 67.77290937 -11.79768964 64.03828597 -11.76316261 60.30307579 C-11.74074494 57.40655166 -11.7368741 54.51020744 -11.73792648 51.6136055 C-11.73558964 50.23829139 -11.72687607 48.86297083 -11.71126175 47.48774338 C-11.60855964 37.50205739 -12.87223688 29.40961311 -17.8828125 20.6875 C-23.83538656 15.37844746 -30.32178485 13.88454107 -38.1953125 14.17578125 C-44.47880534 15.11666885 -49.95421153 17.85221581 -54.1953125 22.625 Z " fill="#010101" transform="translate(1151.1953125,47.375)"/>
<path d="M0 0 C1.25554687 -0.00128906 2.51109375 -0.00257812 3.8046875 -0.00390625 C4.46178711 -0.00181152 5.11888672 0.0002832 5.79589844 0.00244141 C7.80411335 0.00779016 9.81210459 0.00249559 11.8203125 -0.00390625 C13.07585937 -0.00261719 14.33140625 -0.00132813 15.625 0 C16.78644531 0.00112793 17.94789063 0.00225586 19.14453125 0.00341797 C21.8125 0.1328125 21.8125 0.1328125 22.8125 1.1328125 C22.91118208 2.46361183 22.94157382 3.79956672 22.94380188 5.13401794 C22.94781006 5.99601303 22.95181824 6.85800812 22.95594788 7.74612427 C22.95541916 8.69929535 22.95489044 9.65246643 22.9543457 10.63452148 C22.95955734 12.13220314 22.95955734 12.13220314 22.96487427 13.66014099 C22.97224828 15.83784358 22.97758485 18.01555378 22.98116493 20.19326591 C22.9883143 23.64486186 23.00397206 27.0963143 23.02250671 30.54786682 C23.07502923 40.36514239 23.12290485 50.18234301 23.13842773 59.99975586 C23.14853634 65.99868589 23.17794219 71.99726053 23.21974754 77.99604988 C23.23202957 80.27923958 23.23718394 82.56247958 23.23494911 84.84570122 C23.23258373 88.05303368 23.25486021 91.25935711 23.2824707 94.46655273 C23.27586929 95.40150574 23.26926788 96.33645874 23.26246643 97.29974365 C23.36018805 104.25498942 24.66197545 111.2384282 29.15344715 116.79036617 C35.08984642 122.20593613 42.18278855 122.54067999 49.82421875 122.37890625 C58.87184618 121.63380752 66.34441339 117.30869902 72.90705872 111.17523193 C75.67852219 106.75003427 75.37701683 102.88370022 75.3425293 97.75878906 C75.35126068 96.71603317 75.35999207 95.67327728 75.36898804 94.59892273 C75.39336015 91.15691919 75.38995385 87.71551633 75.38671875 84.2734375 C75.39915996 81.88400241 75.41349308 79.49457648 75.42964172 77.10516357 C75.46769019 70.81897087 75.48286088 64.53293585 75.49243164 58.24664307 C75.5121698 48.16983668 75.56886436 38.09315066 75.62119484 28.01647186 C75.6365997 24.48820451 75.64374259 20.95999679 75.64933777 17.43170166 C75.65634995 15.28422007 75.66345054 13.13673877 75.6706543 10.98925781 C75.67012558 10.00017929 75.66959686 9.01110077 75.66905212 7.99205017 C75.6730603 7.09758682 75.67706848 6.20312347 75.68119812 5.28155518 C75.6824554 4.49991627 75.68371267 3.71827736 75.68500805 2.91295242 C75.8125 1.1328125 75.8125 1.1328125 76.8125 0.1328125 C78.78833828 0.03295608 80.76773478 0.00200456 82.74609375 0 C83.95201172 -0.00128906 85.15792969 -0.00257812 86.40039062 -0.00390625 C87.67076172 -0.00003906 88.94113281 0.00382812 90.25 0.0078125 C91.51650391 0.00394531 92.78300781 0.00007813 94.08789062 -0.00390625 C95.29509766 -0.00261719 96.50230469 -0.00132813 97.74609375 0 C98.86040771 0.00112793 99.97472168 0.00225586 101.12280273 0.00341797 C103.8125 0.1328125 103.8125 0.1328125 105.8125 1.1328125 C105.83582798 19.63003982 105.85347868 38.12726417 105.86431217 56.62450314 C105.86947534 65.21248299 105.87651844 73.80045373 105.88793945 82.38842773 C105.89788565 89.87096667 105.90435327 97.35349901 105.90658849 104.83604437 C105.90789571 108.80045836 105.91098226 112.76485345 105.91823006 116.7292614 C105.92498926 120.45641463 105.92711717 124.18354107 105.92560768 127.91069984 C105.92588406 129.28256755 105.92788978 130.6544361 105.93170547 132.02629852 C105.93664108 133.89142213 105.93489794 135.75655994 105.93275452 137.62168884 C105.93367631 138.66792388 105.9345981 139.71415892 105.93554783 140.79209805 C105.8125 143.1328125 105.8125 143.1328125 104.8125 144.1328125 C102.89791718 144.23253036 100.97967683 144.26361839 99.0625 144.265625 C97.8971875 144.26691406 96.731875 144.26820313 95.53125 144.26953125 C94.3040625 144.26566406 93.076875 144.26179687 91.8125 144.2578125 C90.5853125 144.26167969 89.358125 144.26554688 88.09375 144.26953125 C86.34578125 144.26759766 86.34578125 144.26759766 84.5625 144.265625 C83.48484375 144.26449707 82.4071875 144.26336914 81.296875 144.26220703 C78.8125 144.1328125 78.8125 144.1328125 77.8125 143.1328125 C77.77157063 140.79983817 77.77008277 138.46576025 77.8125 136.1328125 C76.16701172 136.96425781 76.16701172 136.96425781 74.48828125 137.8125 C73.03390813 138.54437808 71.57947804 139.27614295 70.125 140.0078125 C69.40376953 140.37261719 68.68253906 140.73742187 67.93945312 141.11328125 C54.23598232 147.99630312 37.31402966 149.75586728 22.359375 145.421875 C12.4139105 141.8524905 4.19211268 135.2728012 -1.1875 126.1328125 C-4.44281802 118.55112624 -7.31043695 110.84063509 -7.31448364 102.51409912 C-7.31730347 101.61677063 -7.32012329 100.71944214 -7.32302856 99.79492188 C-7.32100433 98.82329102 -7.3189801 97.85166016 -7.31689453 96.85058594 C-7.31864685 95.81758362 -7.32039917 94.7845813 -7.32220459 93.72027588 C-7.32660089 90.31089593 -7.32369377 86.90156796 -7.3203125 83.4921875 C-7.32098597 81.125183 -7.32195636 78.75817858 -7.32321167 76.39117432 C-7.32468546 71.43492981 -7.32254353 66.47870334 -7.31787109 61.52246094 C-7.31216154 55.15427091 -7.31546258 48.78612292 -7.32144356 42.41793442 C-7.32504715 37.53338297 -7.32391174 32.64884159 -7.32131577 27.76428986 C-7.32064658 25.41502121 -7.32147463 23.06575166 -7.32379532 20.71648407 C-7.32631987 17.44345149 -7.32248462 14.17048831 -7.31689453 10.89746094 C-7.31891876 9.91773315 -7.32094299 8.93800537 -7.32302856 7.92858887 C-7.32020874 7.04253967 -7.31738892 6.15649048 -7.31448364 5.24359131 C-7.31410662 4.46932674 -7.31372959 3.69506218 -7.31334114 2.89733505 C-7.02003652 -1.21533131 -3.32024129 0.00322443 0 0 Z " fill="#010101" transform="translate(154.1875,40.8671875)"/>
<path d="M0 0 C0.65871094 0.53496094 1.31742187 1.06992187 1.99609375 1.62109375 C9.33338241 8.20098487 13.30047649 18.23998146 14 28 C13.31543624 32.68456376 13.31543624 32.68456376 12 34 C7.88265224 34.30869464 3.7524971 34.27840724 -0.375 34.3125 C-2.11910156 34.35600586 -2.11910156 34.35600586 -3.8984375 34.40039062 C-5.0121875 34.40876953 -6.1259375 34.41714844 -7.2734375 34.42578125 C-8.29872559 34.44036377 -9.32401367 34.45494629 -10.38037109 34.4699707 C-13 34 -13 34 -14.79931641 32.18823242 C-16 30 -16 30 -16.9375 26.5625 C-18.04814886 22.83855972 -19.50448981 20.91142855 -22 18 C-22 17.34 -22 16.68 -22 16 C-22.556875 15.87625 -23.11375 15.7525 -23.6875 15.625 C-26 15 -26 15 -28.09375 13.98046875 C-32.04559407 12.64725254 -35.6702318 12.67039732 -39.8125 12.6875 C-40.96588867 12.66333008 -40.96588867 12.66333008 -42.14257812 12.63867188 C-48.64166571 12.63318741 -53.88855942 14.00548681 -59.4375 17.5625 C-62.67371559 22.61099632 -62.04172741 29.16859442 -62 35 C-61.443125 35.2475 -60.88625 35.495 -60.3125 35.75 C-58 37 -58 37 -55.859375 38.8984375 C-52.36315353 41.46806476 -49.04640068 42.59869625 -44.9375 43.875 C-43.76525879 44.25507202 -43.76525879 44.25507202 -42.56933594 44.64282227 C-38.35473201 45.99548795 -34.12094839 47.26276985 -29.86328125 48.47265625 C-13.97471102 53.00208674 1.85139253 57.98267879 10.9921875 72.8125 C14.14134704 79.64788506 14.33650336 85.94355849 14.3125 93.375 C14.32861328 94.365 14.34472656 95.355 14.36132812 96.375 C14.36831843 106.97229871 11.51324079 115.94946864 4.375 123.9375 C2 126 2 126 0 126 C0 126.66 0 127.32 0 128 C-2.18376766 129.13277268 -4.37157128 130.25622789 -6.5625 131.375 C-7.17158203 131.69210938 -7.78066406 132.00921875 -8.40820312 132.3359375 C-23.76210921 140.13474694 -48.04087314 140.81795898 -64.5 135.8125 C-78.49309278 130.54600872 -87.43152517 124.08070243 -94.16015625 110.69140625 C-96.9737123 104.38863732 -98.32896911 97.93028256 -98 91 C-94.43167653 87.43167653 -88.95260776 88.63060698 -84.125 88.625 C-83.02285156 88.60050781 -81.92070312 88.57601562 -80.78515625 88.55078125 C-79.72425781 88.54691406 -78.66335938 88.54304688 -77.5703125 88.5390625 C-76.11262451 88.52673584 -76.11262451 88.52673584 -74.62548828 88.51416016 C-71.27361564 89.13441555 -70.10738064 90.37928305 -68 93 C-67.3125 95.18359375 -67.3125 95.18359375 -67 97.4375 C-66.179236 101.65167483 -65.24348484 104.006014 -62 107 C-52.41985415 113.4232597 -42.10599529 114.24674805 -30.74609375 112.69140625 C-25.7391552 111.42567011 -21.42891096 108.93343165 -18.3515625 104.76953125 C-16.74031685 101.4678747 -16.59934205 99.16053392 -16.625 95.5 C-16.61726563 94.3965625 -16.60953125 93.293125 -16.6015625 92.15625 C-17.05291432 88.5808356 -17.9157136 86.91617389 -20 84 C-26.93728506 78.92501316 -35.16720902 76.36745842 -43.3125 73.9375 C-45.5186979 73.25411556 -47.72443131 72.56922972 -49.9296875 71.8828125 C-50.97737305 71.55958008 -52.02505859 71.23634766 -53.10449219 70.90332031 C-83.15375337 61.52876159 -83.15375337 61.52876159 -90.4375 47.875 C-94.71137256 38.94394792 -94.69947768 24.12741545 -91.75 14.75 C-86.50854582 2.27728034 -77.00744217 -3.95359207 -65 -9 C-62.00172243 -9.99484133 -59.13064486 -10.60938743 -56 -11 C-54.83791016 -11.16242187 -54.83791016 -11.16242187 -53.65234375 -11.328125 C-34.7673384 -13.60270568 -15.13666768 -12.57384564 0 0 Z " fill="#010101" transform="translate(380,50)"/>
<path d="M0 0 C4.14947917 3.68125 4.14947917 3.68125 6.0078125 5.78125 C6.0078125 6.77125 6.0078125 7.76125 6.0078125 8.78125 C6.6678125 8.78125 7.3278125 8.78125 8.0078125 8.78125 C11.30086057 15.45555279 12.41496145 21.61317251 12.4453125 28.96875 C12.45498047 29.71624512 12.46464844 30.46374023 12.47460938 31.23388672 C12.3407 40.16839911 9.04167287 47.24095051 3.0078125 53.78125 C1.06466222 55.34987018 -0.81467215 56.53695551 -2.9921875 57.78125 C-2.5075 58.1215625 -2.0228125 58.461875 -1.5234375 58.8125 C2.25537788 61.5448742 5.8550701 64.40207997 9.2578125 67.59375 C9.88171875 68.17769531 10.505625 68.76164062 11.1484375 69.36328125 C16.88302859 76.82065916 17.64066431 84.01322676 17.5078125 93.21875 C17.53101563 94.82073242 17.53101563 94.82073242 17.5546875 96.45507812 C17.50355388 106.91829552 14.48196506 116.01529826 7.17578125 123.7109375 C-6.16274662 136.44863078 -21.44249518 139.08065468 -39.17578125 138.9375 C-52.19513003 138.40446627 -64.41001582 135.7123557 -74.9921875 127.78125 C-74.9921875 127.12125 -74.9921875 126.46125 -74.9921875 125.78125 C-75.5903125 125.5234375 -76.1884375 125.265625 -76.8046875 125 C-82.74922747 121.68804202 -86.01122523 114.53527764 -88.30859375 108.38671875 C-89.40635924 104.20266399 -89.5205662 100.06891319 -88.9921875 95.78125 C-86.40941201 93.19847451 -79.09260193 94.59566377 -75.6171875 94.59375 C-74.45445312 94.58150391 -73.29171875 94.56925781 -72.09375 94.55664062 C-70.98 94.55470703 -69.86625 94.55277344 -68.71875 94.55078125 C-67.69346191 94.54667236 -66.66817383 94.54256348 -65.61181641 94.53833008 C-62.9921875 94.78125 -62.9921875 94.78125 -59.9921875 96.78125 C-59.25390625 98.76953125 -59.25390625 98.76953125 -58.6796875 101.09375 C-57.19019883 105.87700484 -55.28818564 108.02532666 -50.9921875 110.78125 C-43.47037385 114.60813764 -34.93543214 115.18585488 -26.7890625 112.87109375 C-20.73758453 110.51304577 -17.10283081 107.47753353 -13.9921875 101.78125 C-13.44048041 98.92642938 -13.43102742 96.18125712 -13.4921875 93.28125 C-13.47671875 92.54777344 -13.46125 91.81429687 -13.4453125 91.05859375 C-13.48243713 85.87042685 -14.57621491 82.87557176 -17.9921875 78.78125 C-19.77888057 77.14275492 -19.77888057 77.14275492 -21.7421875 76.03125 C-22.35578125 75.64453125 -22.969375 75.2578125 -23.6015625 74.859375 C-30.01621977 71.96649035 -36.43882288 71.45273925 -43.3671875 71.21875 C-51.74737781 70.90365484 -51.74737781 70.90365484 -53.9921875 69.78125 C-55.34253969 66.21184771 -55.15985628 62.49064851 -55.1796875 58.71875 C-55.19386719 57.49027344 -55.20804688 56.26179688 -55.22265625 54.99609375 C-54.9921875 51.78125 -54.9921875 51.78125 -52.9921875 48.78125 C-51.08789062 48.41235352 -51.08789062 48.41235352 -48.7734375 48.41015625 C-47.9278125 48.39573486 -47.0821875 48.38131348 -46.2109375 48.36645508 C-45.31375 48.3589624 -44.4165625 48.35146973 -43.4921875 48.34375 C-34.58741479 48.07417192 -27.22985553 47.6153306 -20.3671875 41.40625 C-17.84582228 34.75901442 -17.63158472 27.06134338 -20.37109375 20.45703125 C-22.25759604 17.34316602 -23.69663801 16.27209382 -26.9921875 14.78125 C-34.90666645 12.87317528 -43.19880578 12.41232799 -50.375 16.640625 C-53.92798609 19.14659587 -56.43092468 21.69794725 -57.9921875 25.78125 C-58.1571875 26.833125 -58.3221875 27.885 -58.4921875 28.96875 C-58.6571875 29.896875 -58.8221875 30.825 -58.9921875 31.78125 C-61.57942739 33.07486994 -63.47331753 32.91073949 -66.3671875 32.9140625 C-67.43453125 32.91535156 -68.501875 32.91664062 -69.6015625 32.91796875 C-70.72046875 32.91410156 -71.839375 32.91023438 -72.9921875 32.90625 C-74.11109375 32.91011719 -75.23 32.91398437 -76.3828125 32.91796875 C-77.98382812 32.91603516 -77.98382812 32.91603516 -79.6171875 32.9140625 C-80.59945312 32.91293457 -81.58171875 32.91180664 -82.59375 32.91064453 C-84.9921875 32.78125 -84.9921875 32.78125 -86.9921875 31.78125 C-88.60467335 21.21050942 -83.99659535 13.68418093 -78.9921875 4.78125 C-78.3321875 4.78125 -77.6721875 4.78125 -76.9921875 4.78125 C-76.8065625 4.224375 -76.6209375 3.6675 -76.4296875 3.09375 C-72.10809416 -3.85837841 -62.94324273 -6.85384001 -55.5546875 -9.40625 C-36.77202493 -13.69001515 -15.31374358 -12.43182135 0 0 Z " fill="#010000" transform="translate(901.9921875,49.21875)"/>
<path d="M0 0 C1.19074631 0.00842926 1.19074631 0.00842926 2.4055481 0.01702881 C3.24143463 0.01513046 4.07732117 0.01323212 4.9385376 0.01127625 C7.71018765 0.00756213 10.48157746 0.01828171 13.25320435 0.02947998 C15.17369557 0.03067155 17.09418738 0.03112499 19.01467896 0.03086853 C23.04311766 0.0324345 27.07146764 0.04073276 31.09988403 0.05413818 C36.27196138 0.07112817 41.44394111 0.07495258 46.61604309 0.074193 C50.58276303 0.07446452 54.5494615 0.07994283 58.51617432 0.08719444 C60.42362302 0.09038385 62.33107416 0.09234915 64.23852539 0.09308815 C66.9010129 0.09524883 69.56339551 0.10398721 72.2258606 0.11468506 C73.01969147 0.11423187 73.81352234 0.11377869 74.63140869 0.11331177 C80.08675028 0.1454717 80.08675028 0.1454717 82.31570435 1.25994873 C82.37359441 4.71821215 82.40926255 8.17635166 82.44070435 11.63494873 C82.45746216 12.61979248 82.47421997 13.60463623 82.4914856 14.61932373 C82.49793091 15.56033936 82.50437622 16.50135498 82.51101685 17.47088623 C82.52149048 18.34019775 82.53196411 19.20950928 82.54275513 20.10516357 C82.31570435 22.25994873 82.31570435 22.25994873 80.31570435 24.25994873 C77.91125488 24.53842163 77.91125488 24.53842163 74.85623169 24.57879639 C73.71519989 24.59866608 72.57416809 24.61853577 71.39855957 24.63900757 C70.16207672 24.65055878 68.92559387 24.66210999 67.65164185 24.67401123 C66.38929718 24.69337738 65.12695251 24.71274353 63.82635498 24.73269653 C60.46936222 24.78243918 57.1124812 24.82367445 53.75534058 24.86083984 C50.33004812 24.9008372 46.90492103 24.95184135 43.47976685 25.00213623 C36.75847485 25.10001912 30.03731787 25.17947573 23.31570435 25.25994873 C22.98570435 37.13994873 22.65570435 49.01994873 22.31570435 61.25994873 C27.7123645 61.35082764 27.7123645 61.35082764 33.2180481 61.44354248 C36.6864138 61.5052762 40.15474504 61.56868694 43.62307739 61.63226318 C46.04134074 61.67568751 48.45963625 61.71735685 50.87796021 61.75726318 C54.3455883 61.81478476 57.81305337 61.8785306 61.2805481 61.94354248 C62.91333961 61.96861122 62.91333961 61.96861122 64.57911682 61.9941864 C66.08055992 62.02410423 66.08055992 62.02410423 67.61233521 62.05462646 C68.49835922 62.07017075 69.38438324 62.08571503 70.29725647 62.10173035 C72.31570435 62.25994873 72.31570435 62.25994873 73.31570435 63.25994873 C73.41451232 64.73647537 73.4464968 66.21762109 73.44851685 67.69744873 C73.44980591 68.59205811 73.45109497 69.48666748 73.4524231 70.40838623 C73.44855591 71.34940186 73.44468872 72.29041748 73.44070435 73.25994873 C73.44457153 74.20096436 73.44843872 75.14197998 73.4524231 76.11151123 C73.45113403 77.00612061 73.44984497 77.90072998 73.44851685 78.82244873 C73.44738892 79.64873779 73.44626099 80.47502686 73.44509888 81.32635498 C73.31570435 83.25994873 73.31570435 83.25994873 72.31570435 84.25994873 C70.75023387 84.35321589 69.18057662 84.37740455 67.61233521 84.37347412 C66.59731934 84.37335327 65.58230347 84.37323242 64.53652954 84.37310791 C63.46205566 84.36799194 62.38758179 84.36287598 61.2805481 84.35760498 C60.29864502 84.3565979 59.31674194 84.35559082 58.30508423 84.35455322 C54.62111247 84.34930318 50.93715729 84.33534205 47.25320435 84.32244873 C39.02382935 84.30182373 30.79445435 84.28119873 22.31570435 84.25994873 C22.31570435 104.05994873 22.31570435 123.85994873 22.31570435 144.25994873 C13.07570435 144.25994873 3.83570435 144.25994873 -5.68429565 144.25994873 C-8.33098154 141.61326284 -7.93555248 140.41301926 -7.93826294 136.71795654 C-7.94390259 135.54011597 -7.94954224 134.36227539 -7.95535278 133.14874268 C-7.94928009 131.20058655 -7.94928009 131.20058655 -7.94308472 129.21307373 C-7.94579363 127.83672907 -7.949354 126.46038586 -7.95370483 125.08404541 C-7.96284302 121.34031132 -7.95927874 117.59668713 -7.95294666 113.85295105 C-7.94789404 109.9407623 -7.95257606 106.02858315 -7.95571899 102.11639404 C-7.9593608 95.54573878 -7.95455394 88.97512843 -7.94503784 82.40447998 C-7.93415287 74.80069505 -7.93767829 67.19701735 -7.94869065 59.59323502 C-7.95775744 53.07261358 -7.95905179 46.55202448 -7.95381331 40.03139877 C-7.95069025 36.1334838 -7.95029344 32.23561928 -7.95688629 28.33770752 C-7.96265032 24.67368025 -7.95868031 21.00979166 -7.94709778 17.34577942 C-7.94317804 15.35423983 -7.94914488 13.36268856 -7.95535278 11.37115479 C-7.94971313 10.19331421 -7.94407349 9.01547363 -7.93826294 7.80194092 C-7.93750889 6.773974 -7.93675484 5.74600708 -7.93597794 4.68688965 C-7.41235568 -0.36233461 -4.35079966 0.02522457 0 0 Z " fill="#010101" transform="translate(45.684295654296875,40.74005126953125)"/>
<path d="M0 0 C1.11431396 0.00410889 2.22862793 0.00821777 3.37670898 0.01245117 C4.58391602 0.01438477 5.79112305 0.01631836 7.03491211 0.01831055 C8.30141602 0.03055664 9.56791992 0.04280273 10.87280273 0.05541992 C12.77835937 0.05638672 12.77835937 0.05638672 14.72241211 0.05737305 C24.1702022 0.10281939 24.1702022 0.10281939 25.31030273 1.24291992 C25.40894622 3.0755534 25.43662418 4.91202822 25.43728638 6.74731445 C25.4401062 7.94205383 25.44292603 9.13679321 25.4458313 10.36773682 C25.44388671 11.7037355 25.44183852 13.03973404 25.43969727 14.37573242 C25.44105128 15.77325486 25.44283121 17.17077694 25.44500732 18.56829834 C25.44958165 22.37397886 25.4477921 26.1796324 25.44462824 29.98531342 C25.44210463 33.95936661 25.44444218 37.93341742 25.4460144 41.9074707 C25.4478361 48.58244239 25.4454298 55.25740303 25.44067383 61.93237305 C25.43523121 69.66052956 25.43699386 77.38865969 25.44250023 85.11681557 C25.44703137 91.74015339 25.44768191 98.36348325 25.44506156 104.98682213 C25.44349879 108.94786385 25.44330503 112.90889315 25.44659805 116.86993408 C25.44947677 120.59300223 25.44750106 124.31603621 25.4417038 128.03910065 C25.4403762 129.40935459 25.44077031 130.77961138 25.44296646 132.1498642 C25.44567795 134.01275025 25.44168315 135.87564255 25.43728638 137.73852539 C25.43690935 138.78346161 25.43653233 139.82839783 25.43614388 140.90499878 C25.31030273 143.24291992 25.31030273 143.24291992 24.31030273 144.24291992 C22.24974963 144.34285524 20.18577684 144.37372898 18.12280273 144.37573242 C16.86725586 144.37702148 15.61170898 144.37831055 14.31811523 144.37963867 C13.66101563 144.37754395 13.00391602 144.37544922 12.3269043 144.37329102 C10.31868939 144.36794226 8.31069814 144.37323683 6.30249023 144.37963867 C5.04694336 144.37834961 3.79139648 144.37706055 2.49780273 144.37573242 C1.33635742 144.37460449 0.17491211 144.37347656 -1.02172852 144.37231445 C-3.68969727 144.24291992 -3.68969727 144.24291992 -4.68969727 143.24291992 C-4.79049993 141.42526669 -4.82046601 139.60366222 -4.82341003 137.78321838 C-4.82767502 136.59833832 -4.83194 135.41345825 -4.83633423 134.19267273 C-4.83588104 132.88095596 -4.83542786 131.5692392 -4.83496094 130.21777344 C-4.83795087 128.83172515 -4.84135301 127.44567769 -4.84513855 126.05963135 C-4.85399964 122.28487884 -4.85631754 118.51014898 -4.85695434 114.73538709 C-4.8579017 111.58909741 -4.861578 108.44281306 -4.86512643 105.29652542 C-4.87327901 97.87622906 -4.87570994 90.45594485 -4.875 83.03564453 C-4.87439899 75.36997164 -4.88495352 67.70436908 -4.90074366 60.03871399 C-4.91379994 53.46716369 -4.9191847 46.89563643 -4.91854459 40.32407326 C-4.91828904 36.39483703 -4.9211716 32.46566326 -4.93172264 28.5364399 C-4.94137156 24.84206895 -4.94150502 21.14782058 -4.93420601 17.45344543 C-4.93265407 15.44518952 -4.94102924 13.43693371 -4.949646 11.42869568 C-4.94545151 10.24099579 -4.94125702 9.0532959 -4.93693542 7.8296051 C-4.93748019 6.79296502 -4.93802496 5.75632494 -4.93858624 4.68827152 C-4.57246032 1.0910587 -3.55999504 0.32152084 0 0 Z " fill="#000000" transform="translate(422.689697265625,40.757080078125)"/>
<path d="M0 0 C1.90770295 2.63532042 2.45242714 5.5593544 3.21875 8.68359375 C3.49589844 8.04550781 3.77304688 7.40742187 4.05859375 6.75 C4.42082031 5.92371094 4.78304688 5.09742188 5.15625 4.24609375 C5.51589844 3.42238281 5.87554688 2.59867188 6.24609375 1.75 C7.21875 -0.31640625 7.21875 -0.31640625 8.21875 -1.31640625 C10.52875 -1.31640625 12.83875 -1.31640625 15.21875 -1.31640625 C15.21875 6.93359375 15.21875 15.18359375 15.21875 23.68359375 C10.21875 23.68359375 10.21875 23.68359375 7.21875 22.68359375 C4.87992862 22.97594642 2.54591 23.30958589 0.21875 23.68359375 C-3.11458333 23.68359375 -6.44791667 23.68359375 -9.78125 23.68359375 C-12.04123595 20.08897044 -11.98993087 17.117637 -11.90625 12.93359375 C-11.88820313 11.763125 -11.87015625 10.59265625 -11.8515625 9.38671875 C-11.82835937 8.4946875 -11.80515625 7.60265625 -11.78125 6.68359375 C-14.25625 6.18859375 -14.25625 6.18859375 -16.78125 5.68359375 C-16.76964844 6.89917969 -16.75804687 8.11476563 -16.74609375 9.3671875 C-16.73671722 10.95182139 -16.72761687 12.53645693 -16.71875 14.12109375 C-16.71037109 14.92353516 -16.70199219 15.72597656 -16.69335938 16.55273438 C-16.6847357 18.59654596 -16.7289685 20.64043277 -16.78125 22.68359375 C-17.78125 23.68359375 -17.78125 23.68359375 -20.34375 23.74609375 C-21.148125 23.72546875 -21.9525 23.70484375 -22.78125 23.68359375 C-23.9874752 20.06491816 -23.88941918 16.75853124 -23.84375 12.99609375 C-23.83923828 12.29419922 -23.83472656 11.59230469 -23.83007812 10.86914062 C-23.81831927 9.14058837 -23.80038454 7.4120801 -23.78125 5.68359375 C-24.73 5.72484375 -25.67875 5.76609375 -26.65625 5.80859375 C-29.78125 5.68359375 -29.78125 5.68359375 -31.78125 3.68359375 C-31.40625 1.05859375 -31.40625 1.05859375 -30.78125 -1.31640625 C-4.72330632 -3.4906891 -4.72330632 -3.4906891 0 0 Z " fill="#070707" transform="translate(1209.78125,43.31640625)"/>
<path d="M0 0 C24.42 0 48.84 0 74 0 C73.67 0.99 73.34 1.98 73 3 C64.22027243 3.04637541 55.44058715 3.08189564 46.66076374 3.10362434 C42.58377564 3.11405392 38.50687145 3.12819802 34.42993164 3.15087891 C30.49420028 3.17263677 26.55854955 3.18457484 22.62276268 3.18975449 C21.12248656 3.19344496 19.62221476 3.20065155 18.12197304 3.21146011 C16.01782376 3.22601431 13.91400611 3.22797632 11.80981445 3.22705078 C10.61290482 3.231492 9.41599518 3.23593323 8.18281555 3.24050903 C5.03772334 3.00285056 2.83168508 2.34569977 0 1 C0 0.67 0 0.34 0 0 Z " fill="#151414" transform="translate(42,41)"/>
<path d="M0 0 C2.31 0 4.62 0 7 0 C7 8.25 7 16.5 7 25 C2 25 2 25 -1 23 C-1.58203125 20.50390625 -1.58203125 20.50390625 -1.8125 17.5625 C-1.90144531 16.59441406 -1.99039062 15.62632813 -2.08203125 14.62890625 C-2 12 -2 12 0 9 C-1.32 8.67 -2.64 8.34 -4 8 C-1.125 1.125 -1.125 1.125 0 0 Z " fill="#040303" transform="translate(1218,42)"/>
<path d="M0 0 C7.92 0 15.84 0 24 0 C24 0.99 24 1.98 24 3 C23.31373535 3.02505615 22.6274707 3.0501123 21.92041016 3.07592773 C18.82174183 3.19171427 15.72339077 3.31451885 12.625 3.4375 C11.54476562 3.47681641 10.46453125 3.51613281 9.3515625 3.55664062 C8.3203125 3.59853516 7.2890625 3.64042969 6.2265625 3.68359375 C5.27346191 3.72025146 4.32036133 3.75690918 3.33837891 3.79467773 C0.97867651 3.85763465 0.97867651 3.85763465 -1 5 C-0.67 3.35 -0.34 1.7 0 0 Z " fill="#0B0A0A" transform="translate(231,41)"/>
<path d="M0 0 C1.53333984 -0.03867187 1.53333984 -0.03867187 3.09765625 -0.078125 C6.27789609 0.2893305 7.60222773 1.12193414 9.9375 3.25 C8.9375 4.25 8.9375 4.25 6.98803711 4.36352539 C6.1553833 4.35828857 5.32272949 4.35305176 4.46484375 4.34765625 C3.56572266 4.34443359 2.66660156 4.34121094 1.74023438 4.33789062 C0.79470703 4.32951172 -0.15082031 4.32113281 -1.125 4.3125 C-2.07439453 4.30798828 -3.02378906 4.30347656 -4.00195312 4.29882812 C-6.35553065 4.2870011 -8.70898477 4.27052025 -11.0625 4.25 C-11.0625 3.26 -11.0625 2.27 -11.0625 1.25 C-7.33766777 0.39939375 -3.81931825 0.05794162 0 0 Z " fill="#040404" transform="translate(340.0625,37.75)"/>
<path d="M0 0 C5.28 0 10.56 0 16 0 C16 0.99 16 1.98 16 3 C15 4 15 4 11.62109375 4.09765625 C10.22652923 4.09098369 8.83198257 4.07902532 7.4375 4.0625 C6.72658203 4.05798828 6.01566406 4.05347656 5.28320312 4.04882812 C3.52209987 4.03700864 1.76103964 4.01907263 0 4 C0 2.68 0 1.36 0 0 Z " fill="#060606" transform="translate(528,184)"/>
<path d="M0 0 C6.93 0 13.86 0 21 0 C21 0.99 21 1.98 21 3 C13.74 3 6.48 3 -1 3 C-0.67 2.01 -0.34 1.02 0 0 Z " fill="#0B0A0A" transform="translate(153,41)"/>
<path d="M0 0 C3.32604248 1.66302124 3.80042476 4.62976481 5 8 C4.6875 10.4375 4.6875 10.4375 4 12 C1 12 1 12 -2 11 C-1.40049704 7.31733897 -0.75241109 3.65456815 0 0 Z " fill="#0E0E0E" transform="translate(653,83)"/>
<path d="M0 0 C1.32 0 2.64 0 4 0 C3.835 0.9075 3.67 1.815 3.5 2.75 C2.89862854 6.11087503 2.89862854 6.11087503 3 10 C0.36 9.34 -2.28 8.68 -5 8 C-4.1875 6.0625 -4.1875 6.0625 -3 4 C-2.01 3.67 -1.02 3.34 0 3 C0 2.01 0 1.02 0 0 Z " fill="#121111" transform="translate(1214,51)"/>
<path d="M0 0 C-0.33 0.99 -0.66 1.98 -1 3 C-0.34 3.33 0.32 3.66 1 4 C-2.63 4 -6.26 4 -10 4 C-10 3.01 -10 2.02 -10 1 C-6.78548731 -0.60725635 -3.56387464 -0.05748185 0 0 Z " fill="#090909" transform="translate(868,38)"/>
<path d="M0 0 C2.31309705 0.11341637 4.62550185 0.24103807 6.9375 0.375 C8.86916016 0.47941406 8.86916016 0.47941406 10.83984375 0.5859375 C12.40412109 0.79089844 12.40412109 0.79089844 14 1 C14.33 1.66 14.66 2.32 15 3 C10.05 3 5.1 3 0 3 C0 2.01 0 1.02 0 0 Z " fill="#0C0C0C" transform="translate(329,39)"/>
<path d="M0 0 C3.63 0 7.26 0 11 0 C11 0.99 11 1.98 11 3 C7.37 3 3.74 3 0 3 C0 2.01 0 1.02 0 0 Z " fill="#0C0B0B" transform="translate(640,41)"/>
<path d="M0 0 C-0.33 0.99 -0.66 1.98 -1 3 C-3.97 3 -6.94 3 -10 3 C-10 2.01 -10 1.02 -10 0 C-2.25 -1.125 -2.25 -1.125 0 0 Z " fill="#0E0E0E" transform="translate(871,99)"/>
<path d="M0 0 C0.88945313 0.07863281 1.77890625 0.15726563 2.6953125 0.23828125 C3.77425781 0.46064453 3.77425781 0.46064453 4.875 0.6875 C5.205 1.3475 5.535 2.0075 5.875 2.6875 C1.585 2.6875 -2.705 2.6875 -7.125 2.6875 C-7.455 2.0275 -7.785 1.3675 -8.125 0.6875 C-4.98117176 -0.36044275 -3.25296561 -0.31770947 0 0 Z " fill="#0B0B0B" transform="translate(1114.125,39.3125)"/>
</svg>
